<svg width="48" height="48" viewBox="0 0 48 48" fill="currentColor" xmlns="http://www.w3.org/2000/svg">
<path d="M43.9893 11.9379C43.9981 11.8092 43.9812 11.6801 43.9396 11.5585C43.8622 11.1951 43.6823 10.8633 43.4225 10.605C43.241 10.4111 43.023 10.2574 42.7819 10.1534C42.5408 10.0493 42.2816 9.9972 42.0202 10.0001H5.98903C5.72765 9.9972 5.46846 10.0493 5.22733 10.1534C4.98621 10.2574 4.76823 10.4111 4.58676 10.605C4.32781 10.8656 4.14515 11.196 4.05967 11.5585C4.03475 11.6837 4.03475 11.8127 4.05967 11.9379C4.05967 11.9379 4 12.0506 4 12.0506V35.9802C3.99979 36.2508 4.05153 36.5187 4.15224 36.7686C4.25294 37.0185 4.40062 37.2453 4.58676 37.4361C4.82262 37.677 5.11323 37.8533 5.4321 37.9487V37.9487L5.66084 38H5.80007H42.0202H42.2489H42.3782C42.5163 38.0009 42.653 37.9723 42.7797 37.9158C42.9064 37.8593 43.0203 37.7762 43.1142 37.6719C43.2204 37.5952 43.3202 37.5094 43.4125 37.4156C43.5987 37.2248 43.7463 36.998 43.847 36.7481C43.9478 36.4982 43.9995 36.2303 43.9993 35.9597V12.0506C44.0016 12.0127 43.9983 11.9747 43.9893 11.9379V11.9379ZM42.0003 35.283L29.9965 24.0564L42.0202 14.0396L42.0003 35.283ZM24.0096 26.4043L6.76474 12.0506H41.2345L24.0096 26.4043ZM5.98903 14.0396L18.1221 24.1487L5.98903 35.4778V14.0396ZM19.6835 25.461L22.8162 28.0652C23.1479 28.3607 23.5712 28.5243 24.0096 28.5266C24.4366 28.5309 24.8505 28.3741 25.1732 28.0857L28.4352 25.379L39.8024 35.9802H8.40569L19.6835 25.461Z"/>
</svg>
