<svg width="48" height="48" viewBox="0 0 48 48" fill="currentColor" xmlns="http://www.w3.org/2000/svg">
<path d="M42.5 23H6.5C6.10218 23 5.72064 23.158 5.43934 23.4393C5.15804 23.7206 5 24.1022 5 24.5C5 24.8978 5.15804 25.2794 5.43934 25.5607C5.72064 25.842 6.10218 26 6.5 26H42.5C42.8978 26 43.2794 25.842 43.5607 25.5607C43.842 25.2794 44 24.8978 44 24.5C44 24.1022 43.842 23.7206 43.5607 23.4393C43.2794 23.158 42.8978 23 42.5 23Z"/>
<path d="M6.5 14H42.5C42.8978 14 43.2794 13.842 43.5607 13.5607C43.842 13.2794 44 12.8978 44 12.5C44 12.1022 43.842 11.7206 43.5607 11.4393C43.2794 11.158 42.8978 11 42.5 11H6.5C6.10218 11 5.72064 11.158 5.43934 11.4393C5.15804 11.7206 5 12.1022 5 12.5C5 12.8978 5.15804 13.2794 5.43934 13.5607C5.72064 13.842 6.10218 14 6.5 14V14Z"/>
<path d="M42.5 35H6.5C6.10218 35 5.72064 35.158 5.43934 35.4393C5.15804 35.7206 5 36.1022 5 36.5C5 36.8978 5.15804 37.2794 5.43934 37.5607C5.72064 37.842 6.10218 38 6.5 38H42.5C42.8978 38 43.2794 37.842 43.5607 37.5607C43.842 37.2794 44 36.8978 44 36.5C44 36.1022 43.842 35.7206 43.5607 35.4393C43.2794 35.158 42.8978 35 42.5 35Z" />
</svg>
