
<svg width="48" height="48" viewBox="0 0 48 48" fill="currentColor" xmlns="http://www.w3.org/2000/svg">
<path d="M39.9997 32.5007C39.9899 32.2012 39.8712 31.9157 39.6657 31.6975L32.5683 24.605C32.3536 24.3947 32.0651 24.277 31.7646 24.277C31.4641 24.277 31.1755 24.3947 30.9609 24.605L26.8381 28.7771C26.8191 28.802 26.8049 28.8303 26.7963 28.8605C26.7963 28.8605 26.7441 28.8605 26.7337 28.9231C26.3401 29.4098 25.7697 29.7211 25.1472 29.7888C23.8843 29.9035 22.35 29.0795 20.6695 27.4003C18.9995 25.7314 18.175 24.1982 18.2794 22.957C18.3048 22.6425 18.3948 22.3366 18.5439 22.0584C18.6929 21.7802 18.8978 21.5358 19.1457 21.3403L19.2292 21.2568H19.2918L23.4042 17.1473C23.6221 16.9323 23.7459 16.6398 23.7486 16.3338C23.7403 16.0309 23.6215 15.7416 23.4146 15.5202L16.2962 8.33377C16.0787 8.12079 15.7866 8.00104 15.4821 8V8C15.1827 8.01075 14.8973 8.12929 14.6784 8.33377L10.5556 12.5059C8.96391 14.0717 8.04963 16.1986 8.00887 18.4302C7.83144 22.7484 10.3156 27.515 15.3986 32.5945C20.3147 37.5072 24.928 40 29.1343 40H29.5727C30.6941 39.9844 31.8015 39.7479 32.8313 39.3041C33.8612 38.8602 34.7933 38.2177 35.5743 37.4133L39.6449 33.3455C39.76 33.2374 39.851 33.1063 39.9121 32.9608C39.9733 32.8152 40.0031 32.6585 39.9997 32.5007ZM15.4821 10.472L21.254 16.2399L18.5403 18.9518L12.7684 13.2151L15.4821 10.472ZM29.4475 37.8827H29.1761C25.5856 37.8827 21.348 35.5359 16.8912 31.0926C12.33 26.5241 9.98156 22.1956 10.1068 18.5763C10.1219 17.1941 10.5548 15.8489 11.3489 14.7171L17.0686 20.4329C16.5717 21.0843 16.2646 21.8604 16.1814 22.6754C15.9935 24.5841 16.9955 26.6597 19.1665 28.8188C21.1601 30.811 23.0702 31.8227 24.8654 31.8227H25.3142C26.1323 31.7445 26.9127 31.4412 27.5687 30.9465L33.2884 36.6623C32.1571 37.4398 30.8204 37.8645 29.4475 37.8827V37.8827ZM34.8123 35.2125L29.0508 29.455L31.7646 26.7432L37.5261 32.5007L34.8123 35.2125Z" />
</svg>
