<svg width="48" height="48" viewBox="0 0 48 48" fill="currentColor" xmlns="http://www.w3.org/2000/svg">
<path d="M21.1736 28.7339C19.6601 28.7465 18.1768 28.3135 16.9122 27.4897C15.6475 26.666 14.6584 25.4886 14.0703 24.1071C13.4823 22.7256 13.3218 21.2022 13.6092 19.7302C13.8967 18.2582 14.6191 16.904 15.6849 15.8393C16.7506 14.7747 18.1116 14.0477 19.5952 13.7505C21.0788 13.4533 22.618 13.5994 24.0176 14.1702C25.4173 14.741 26.6141 15.7108 27.4564 16.9565C28.2987 18.2022 28.7484 19.6677 28.7484 21.167C28.7541 23.1646 27.96 25.0829 26.54 26.5014C25.1201 27.9198 23.1902 28.7227 21.1736 28.7339ZM36.634 34.7832L30.2055 28.3519C29.9634 28.1178 29.6385 27.9868 29.3002 27.9868C28.9619 27.9868 28.637 28.1178 28.3949 28.3519C29.8215 26.93 30.7924 25.1224 31.1859 23.156C31.5793 21.1896 31.3777 19.1519 30.6064 17.2985C29.8351 15.4452 28.5284 13.8587 26.8503 12.7382C25.1722 11.6176 23.1974 11.013 21.1736 11C19.7252 10.9996 18.2936 11.3073 16.9757 11.9024C15.6578 12.4974 14.4842 13.3659 13.5345 14.4491C12.2427 15.916 11.4022 17.7188 11.1124 19.6441C10.8227 21.5694 11.0958 23.5366 11.8994 25.3129C12.7031 27.0893 14.0037 28.6004 15.6472 29.6675C17.2908 30.7345 19.2086 31.3129 21.1736 31.334C22.5065 31.3332 23.826 31.0712 25.0561 30.563C26.2863 30.0548 27.4028 29.3105 28.3413 28.3731C28.1005 28.617 27.9656 28.9446 27.9656 29.2858C27.9656 29.6269 28.1005 29.9546 28.3413 30.1985L34.7697 36.6192C34.8903 36.7398 35.0338 36.8356 35.1919 36.901C35.3501 36.9663 35.5198 37 35.6911 37C35.8625 37 36.0322 36.9663 36.1903 36.901C36.3485 36.8356 36.492 36.7398 36.6125 36.6192C36.8569 36.3763 36.9959 36.0484 36.9999 35.7055C37.0039 35.3626 36.8726 35.0316 36.634 34.7832V34.7832Z" />
</svg>
