<svg xmlns="http://www.w3.org/2000/svg" viewBox="0 0 128 128">
<g fill="currentColor">
	<path d="M127.8,58.7c-0.9-12-5.3-23.5-12.6-33.1c-10.1-13.6-25.2-22.6-42-25C56.3-1.8,39.1,2.6,25.4,13
		C14.5,21.2,6.5,32.7,2.7,45.8c-1.3,4.3-2.1,8.8-2.4,13.3c-0.1,1.2-0.2,2.2-0.2,3.4v3c0,0.3,0.1,0.7,0.1,1c0.1,4.6,0.8,9.2,2,13.6
		C5.9,95,15,108,27.7,116.7c11.7,8.2,25.9,12.1,40.1,11.2c4.9-0.2,9.8-1.1,14.5-2.6c19.7-6.3,33.5-19,41.3-38.2
		c2.3-5.7,3.7-11.8,4.1-17.9c0.1-0.9,0.2-1.8,0.2-2.8v-4.9C127.9,60.6,127.8,59.7,127.8,58.7z M63.9,118.8
		C33.7,118.7,9.2,94.1,9.3,63.9S33.9,9.2,64.1,9.2c30.2,0.1,54.7,24.6,54.7,54.8C118.8,94.3,94.2,118.8,63.9,118.8
		C64,118.8,64,118.8,63.9,118.8z"/>
	<path d="M49.8,48.5L48,48.9L47.7,49L46,49.3c-0.3,0.1-0.3,0.2-0.3,0.4c0,2.2,0,4.3,0,6.5c0,0.1,0,0.2,0,0.4l0,0l0.9-0.2
		c1-0.2,1.9-0.4,2.8-0.5c0.1,0,0.1,0,0.2-0.1c0.2-0.1,0.2-0.2,0.2-0.5c0-2.1,0-4.2,0-6.2L49.8,48.5L49.8,48.5z"/>
	<path d="M77.3,66.4l-3.7,0.2l0,0v6.9h3.8L77.3,66.4L77.3,66.4L77.3,66.4z"/>
	<path d="M39.6,79.1v6.9h3.8v-7l0,0L39.6,79.1z"/>
	<path d="M79.6,44.2l4.2-0.8V36c-1.3,0.3-2.6,0.6-3.9,0.9c-0.3,0.1-0.3,0.2-0.3,0.4c0,1.2,0,2.3,0,3.4L79.6,44.2L79.6,44.2z"/>
	<path d="M45.7,78.9v7.2h4.1v-7.4l0,0L45.7,78.9z"/>
	<path d="M79.6,50.4v3.5l0,0c0.2,0,0.3,0,0.5,0c1.1-0.1,2.2-0.3,3.3-0.4c0.3,0,0.4-0.2,0.4-0.5c0-2.2,0-4.4,0-6.6c0-0.1,0-0.3,0-0.4
		l0,0c-0.1,0-0.3,0-0.4,0c-1.2,0.2-2.3,0.4-3.4,0.6c-0.3,0-0.4,0.2-0.4,0.5C79.6,48.2,79.6,49.3,79.6,50.4z"/>
	<path d="M99,33.2c-2.9-1.9-5.8-3.8-8.7-5.7c-0.1-0.1-0.3-0.2-0.4-0.2c-0.2,0-0.3,0-0.5,0c-7.2,1.9-14.5,3.9-21.7,5.9
		c-0.1,0-0.3,0.1-0.4,0.2c-0.1,0.1-0.1,0.2-0.1,0.4c0,5.4,0,10.8,0,16.3v41.7h-1.6v-0.4c0-3.7,0-7.4,0-11c0-11.5,0-23.1,0-34.6
		c0-0.3-0.1-0.5-0.3-0.6c-2.9-1.9-5.9-3.9-8.8-5.9C56.4,39.1,56.2,39,56,39c-0.2,0-0.3,0-0.5,0l-10.8,2.9l-10.8,3
		c-0.3,0.1-0.4,0.2-0.5,0.4c0,0.1,0,0.2,0,0.3c0,15.2,0,30.4,0,45.7v0.6h-4.9v3.5H37c0-0.2,0-0.3,0-0.5v-9.2l0,0
		c0-12.4,0-24.9,0-37.3c0-0.4,0.1-0.6,0.5-0.7l13-3.5l1.8-0.5h0.2v51.9h21.4v-3.5h-3V36l5.1-1.4l10.3-2.7v63.5h13.1v-0.5
		c0-20.4,0-40.7,0-61.1C99.4,33.6,99.3,33.3,99,33.2z"/>
	<path d="M83.8,56.1L83.8,56.1l-4.1,0.5v7.2l0,0c1.3-0.1,2.5-0.2,3.7-0.2h0h0.2c0.2-0.1,0.2-0.2,0.2-0.5c0-2.1,0-4.3,0-6.5
		C83.8,56.4,83.8,56.3,83.8,56.1z"/>
	<path d="M83.8,66.2c-1.3,0-2.5,0.1-3.8,0.2c-0.1,0-0.2,0-0.3,0.1l0,0c-0.1,0.1-0.1,0.2-0.1,0.3c0,2.1,0,4.2,0,6.3
		c0,0.2,0,0.3,0,0.5h4.2L83.8,66.2L83.8,66.2z"/>
	<path d="M49.8,76L49.8,76v-7.4h-0.3l-3,0.3h-0.5c-0.4,0-0.4,0.2-0.4,0.5c0,2.1,0,4.3,0,6.4c0,0.1,0,0.2,0,0.4l0,0h0.4L49.8,76z"/>
	<path d="M49.8,58.6c-0.1,0-0.3,0-0.4,0c-1.1,0.2-2.2,0.4-3.3,0.6c-0.4,0-0.5,0.2-0.5,0.5c0,2.1,0,4.3,0,6.4c0,0.1,0,0.2,0,0.4h0.5
		l1.6-0.2c0.5-0.1,1.1-0.1,1.6-0.2l0,0c0.2,0,0.3-0.1,0.4-0.2c0-0.1,0-0.2,0-0.3c0-2.2,0-4.4,0-6.5C49.8,58.9,49.8,58.7,49.8,58.6z"
		/>
	<path d="M77.4,37.5L77.4,37.5l-3.8,0.9v7l0,0c1.2-0.2,2.3-0.5,3.5-0.7c0.3,0,0.4-0.2,0.4-0.5c0-2.1,0-4.2,0-6.3
		C77.4,37.8,77.4,37.7,77.4,37.5z"/>
	<path d="M77.4,47.1L77.4,47.1l-3.8,0.7v7l0,0l0.8-0.1l2-0.2l0.7-0.1c0.3,0,0.4-0.2,0.4-0.5c0-2.1,0-4.2,0-6.3
		C77.4,47.4,77.4,47.3,77.4,47.1z"/>
	<path d="M77.2,56.8l-3.4,0.4h-0.1l0,0c-0.1,0.1-0.1,0.2-0.1,0.4v6.6l0,0l3.9-0.2v-7L77.2,56.8L77.2,56.8z"/>
	<path d="M43.4,56.7c0-2.1,0-4.2,0-6.2c0-0.2,0-0.3,0-0.5l-3.6,0.8h-0.2v7l0,0c1.2-0.2,2.3-0.4,3.4-0.6C43.4,57.2,43.4,57,43.4,56.7
		z"/>
	<path d="M43.4,69.3L43.4,69.3l-3.8,0.4v7l0,0c1.2,0,2.3-0.1,3.4-0.2c0.4,0,0.5-0.2,0.5-0.5c0-2.1,0-4.1,0-6.2
		C43.4,69.6,43.4,69.5,43.4,69.3z"/>
	<path d="M43.4,59.6L43.4,59.6l-3.8,0.7v7l0,0c1.2-0.1,2.2-0.3,3.3-0.4c0.4,0,0.5-0.2,0.5-0.6c0-2,0-4.1,0-6.1
		C43.4,60,43.4,59.9,43.4,59.6z"/>
</g>
</svg>
