<svg xmlns="http://www.w3.org/2000/svg" viewBox="0 0 128 128">
<path d="M122.6,38.4l1-1c1.2-1.2,2.3-2.4,3.5-3.7c0.7-0.8,1.1-1.8,0.8-2.9c-0.3-1.1-1.1-1.9-2.2-2.3c-0.2-0.1-0.5-0.2-0.8-0.3
	l-5.7-1.7l-12.2-3.7l-8.6-2.7c-4.9-1.5-9.7-3-14.6-4.5c-2.8-0.9-5.8-0.1-7.8,2c-1.7,1.7-3.5,3.4-5.3,5.1l-1.2,1.1l-0.3-0.3l-3.1-3.8
	l-1-1.2c-0.8-1-1.6-2-2.3-3c-1.3-2.2-3.8-3.4-6.3-3c-0.7,0.1-1.4,0.2-2.1,0.3l-8.1,1l-15.8,1.8c-3.6,0.4-7.1,0.9-10.7,1.4
	c-1.1,0.1-2.2,0.7-2.8,1.7c-0.5,1-0.6,2.1-0.2,3.1c0.5,1.3,0.9,2.5,1.4,3.8l1,2.8c0.5,1.5,1.1,2.9,1.6,4.4l-2.5-0.1
	c-1.9-0.1-3.9-0.2-5.8-0.3l-2.1-0.1c-2.4-0.1-5-0.3-7.4-0.4c-1-0.2-2.1,0.3-2.6,1.2c-0.5,1-0.4,2.1,0.3,2.9c0.2,0.2,0.3,0.5,0.5,0.7
	l10,12c3,3.6,6,7.2,9,10.8c2.1,2.6,5.3,4.1,8.7,3.9c5.7-0.1,11.4-0.1,17-0.2l7.2-0.1h0.2l1.1,1.6c-0.6-0.5-1.3-0.7-2-0.7l0,0
	c-8.7,0-17.3,0-26,0c-0.7,0-1.4,0.2-1.9,0.7c-0.5,0.5-0.7,1.2-0.6,1.9c0,1.8,0,3.6,0,5.3v2.2c0,2.2,0.8,4.2,2.2,5.9l5.5,6.6l7,8.4
	l10.4,12.4l5.2,6.2c1.4,1.7,3.6,2.3,5.7,1.6c0.8-0.3,1.5-0.6,2.3-0.9l6.9-2.8l13.8-5.5l2.1-0.8c6.1-2.4,12.2-4.9,18.3-7.3
	c2.5-0.9,4.2-3.2,4.3-5.9c0.2-2.7,0.6-5.5,0.9-8.2c0.1-1.1,0.3-2.3,0.4-3.4l0.8-7.2l-4.5,1.5l-4.5,1.5L98.4,77L70,86.2
	c-1.3,0.4-2.6-0.2-3.3-1.3c-0.5-0.9-1.1-1.7-1.6-2.6l-1-1.6l-3-5c-1.5-2.5-3-5.1-4.6-7.6l0.9,1.3c2.8,4.2,5.7,8.4,8.5,12.7
	c1.1,1.6,2.9,2.5,4.8,2.5c0.4,0,0.9-0.1,1.3-0.2c1.2-0.3,2.3-0.7,3.4-1.1l42.9-13.9c1.6-0.5,3.2-1,4.8-1.6c1.1-0.3,2-1.1,2.4-2.2
	c0.3-1,0.2-2.1-0.5-3c-3.1-4.8-6.2-9.5-9.3-14.3c-0.4-0.7-0.8-1.3-1.3-2c0.3-0.3,0.6-0.5,0.9-0.8C117.9,43.3,120.3,40.8,122.6,38.4z
	 M61.6,82.2c0.3,0.5,0.7,1.1,1,1.6c0.5,0.9,1.1,1.8,1.6,2.7c1.4,2.3,4.1,3.4,6.7,2.6l28.4-9.3l2.1-0.7l4.5-1.5h0.1l-0.3,2.6
	c-0.1,1.1-0.3,2.2-0.4,3.4c-0.3,2.7-0.7,5.5-0.9,8.3c0,1.5-0.9,2.9-2.4,3.4c-6.2,2.4-12.3,4.8-18.4,7.2l-2.1,0.8l-13.8,5.5l-6.9,2.8
	c-0.7,0.3-1.5,0.6-2.2,0.8c-0.9,0.3-1.8,0.1-2.4-0.7l-5.2-6.2c-3.4-4.1-6.9-8.3-10.4-12.4l-7-8.4l-5.5-6.6c-1-1.1-1.5-2.5-1.4-4
	v-2.2c0-1.6,0-3.3,0-4.9c8.5,0,17,0,25.6,0h0.1V67c2,3.4,4,6.8,6.1,10.2L61.6,82.2z M19.5,20.8c-0.1-0.2-0.1-0.4,0-0.6
	c0.2-0.2,0.4-0.3,0.7-0.3c3.5-0.5,7.1-0.9,10.6-1.3l15.8-1.9l8.1-1c0.7-0.1,1.5-0.1,2.2-0.3c0.2,0,0.4,0,0.6,0
	c1.2,0,2.3,0.7,2.8,1.8c0.8,1.1,1.7,2.2,2.6,3.3l0.9,1.1c1.1,1.3,2.1,2.6,3.1,3.9l2,2.4l0,0l-15.2,1.7L43,30.7c-4,0.5-8,0.9-12,1.3
	l-7,0.8h0l-0.4-1c-0.5-1.5-1.1-3-1.6-4.5c-0.3-0.9-0.7-1.9-1-2.8C20.4,23.3,20,22,19.5,20.8z M45.9,60.1c-5.6,0-11.4,0.1-17,0.2
	c-2.4,0.1-4.8-0.9-6.3-2.9c-3-3.6-6-7.2-9-10.8l-10-11.9c2.2,0.1,4.5,0.2,6.7,0.3l2.1,0.1l5.8,0.3l4.3,0.2l27.8,24.4L45.9,60.1z
	 M26.5,35.5l4.8-0.5l12-1.3l10.9-1.2c5-0.6,10.1-1.1,15.1-1.7c0.3-0.1,0.7,0,1,0.1c1.9,0.8,3.7,1.6,5.6,2.4l3,1.3l23.6,10.3l0.9,0.4
	L54.4,59.9L26.5,35.5z M122.7,64.4c0.1,0.2,0.2,0.3,0.1,0.4c0,0-0.2,0.2-0.6,0.4c-1.6,0.5-3.1,1.1-4.7,1.6L74.6,80.5
	c-1.1,0.3-2.2,0.7-3.3,1c-1.1,0.2-2.3-0.2-2.9-1.1c-2.8-4.2-5.7-8.5-8.5-12.7l-3.3-5l1-0.1l-0.5-0.5l53.8-16.1l1.1,1.8
	c0.4,0.7,0.9,1.5,1.4,2.2L122.7,64.4z M113.4,43.6c-0.3,0.3-0.6,0.6-1,0.9c-0.2,0.2-0.4,0.3-0.7,0.5l-0.7,0.5l-4.5-2l-3-1.4L80,31.8
	l-3-1.3c-1.9-0.8-3.7-1.7-5.6-2.5c-0.5-0.2-1.1-0.3-1.6-0.3l0.7-0.6c0.8-0.8,1.6-1.5,2.3-2.2c1.8-1.7,3.6-3.4,5.4-5.2
	c1.2-1.4,3.1-1.9,4.9-1.3c4.9,1.5,9.8,3,14.6,4.5l8.6,2.7l12.2,3.7l5.8,1.8c0.2,0.1,0.3,0.1,0.5,0.2c0.1,0.1,0.3,0.1,0.4,0.2
	c0,0.1-0.1,0.2-0.2,0.3c-1.1,1.2-2.2,2.4-3.4,3.5l-1,1C118.2,38.7,115.8,41.2,113.4,43.6L113.4,43.6z" fill="currentColor"/>
</svg>
