<svg xmlns="http://www.w3.org/2000/svg" x="0px" y="0px" viewBox="0 0 128 128">
<path d="M127.2,53.3c-1.1-7.1-3.8-13.8-7.9-19.7l-0.4-0.6L61.2,88.2L29.7,58.7l-0.2-0.2l0,0c-0.5-0.3-1.1-0.5-1.7-0.5
	c-1.7,0-3.1,1.4-3.1,3.2c0,0.9,0.4,1.8,1.2,2.4l4.1,3.8c7.7,7.6,15.5,15,23.9,22.7l7.1,6.7l0.4,0.4l56-53.6c2.3,6,3.6,12.4,3.8,18.9
	c0.4,13.2-3.7,26.1-11.7,36.6c-19.2,25.2-55.2,30-80.4,10.7c-2.4-1.8-4.6-3.9-6.7-6c-4.6-4.9-8.4-10.6-11.1-16.8
	c-2.6-6-4.2-12.4-4.7-18.9C4.6,38.3,25.5,12,54.8,7.2C70.3,4.8,86,8.7,98.5,18.1c0.4,0.3,0.7,0.6,1.1,0.9c1.4,1.2,2.8,2.3,4.3,1.9
	c1.1-0.4,1.9-1.6,2.5-3.8l0.1-0.4l-0.3-0.3c-24.9-22.6-63.1-21.7-87,1.9c-25.2,24.8-25.6,65.3-0.8,90.6c10.7,10.9,24.8,17.6,40,18.9
	c1.9,0.2,3.7,0.2,5.6,0.2c14.4,0,28.4-4.9,39.7-13.8c12-9.8,20.3-23.5,23.2-38.8C128.2,68.1,128.4,60.6,127.2,53.3" fill="currentColor" />
</svg>
