<svg xmlns="http://www.w3.org/2000/svg" viewBox="0 0 128 128">
<g fill="currentColor">
	<path d="M109.6,19.4c-0.2-0.7-0.8-1.8-1.5-2c-1.5-0.2-4.8,0.3-5.1,1.6c-1.6,6.4-6.7,8.6-12.6,10.5c-11.5,3.8-24.3,4.7-37.8,2.4
		c-4.6-0.9-9.2-2-13.7-3.4c-1.9-0.6-3.8-1.1-5.7-1.7l0.2-0.9l20.4,1.1l0.2-2.6l-0.5-0.1c-0.6-0.1-1.1-0.2-1.7-0.3
		c-1.2-0.3-2.5-0.5-3.7-0.6c-3.7-0.3-7.5-0.7-11.2-1c-3.5-0.3-7-0.6-10.5-0.9c-2.7-0.2-5.4,1-7,3.2c-1.6,2.1-1.9,4.8-0.9,7.2
		c0.6,1.3,2.7,2.4,4.3,2.5c1.4,0.1,3-1.3,3.7-2.3c0.5-0.8,0.7-1.7,0.6-2.6c0-0.3,0-0.6,0.1-0.9c11.5,5.4,23.9,8,38.6,8
		c2.3,0,4.6-0.1,6.9-0.2c9.3-0.5,20.2-1.7,29.9-7.4c2.8-1.6,5-4.5,6.9-7l0.1-0.2C110.3,21.3,109.8,20.1,109.6,19.4z"/>
	<path d="M105.5,32l-0.3-0.9l-0.6,0.7c-0.3,0.3-0.5,0.6-0.8,0.9c-0.7,0.8-1.4,1.6-2,2.5c-0.2,0.4-0.3,0.8-0.2,1.2c0,0.2,0,0.3,0,0.5
		l-3.1,19.8c-2.9,18.5-5.9,37.6-8.7,56.4c-0.6,3.9-2.3,5.9-6,7c-13.4,4.1-27.7,4.1-41.1-0.2c-3.3-1-4.8-3-5.4-7
		c-2.7-18.9-5.5-37.3-8.5-56.8C28,50,27,43.7,26,37.3l-0.1-0.4h-0.4c-1.7-0.1-2.9,0.3-3.6,1.1c-0.9,1-0.6,2.5-0.3,3.8
		c0.1,0.3,0.1,0.6,0.2,0.9c1.3,8.4,2.6,16.9,3.8,25.3c2.3,15.1,4.7,30.6,6.9,46c0.8,5.4,3.3,8.7,7.9,10.2
		c15.1,5.2,31.5,5.2,46.6-0.1c4.5-1.5,6.9-4.8,7.7-10.3c1.8-12.8,3.9-25.8,5.9-38.3c0.8-5.3,1.7-10.5,2.5-15.8l0.5-3
		c1.1-6.7,2.2-13.7,3.1-20.5c0-1-0.2-2-0.7-2.8C105.8,32.8,105.6,32.4,105.5,32z"/>
	<path d="M21.4,18c1.9-0.3,3.5-0.6,4-1.7c3-6.5,9-8.7,14.4-10.3c12.5-3.6,25.7-4.1,38.4-1.4c4.3,0.9,8.5,2.3,12.6,3.6
		c1.8,0.6,3.5,1.1,5.3,1.6l-0.2,0.9L77.5,9.7l-0.2,2.9h0.5c2.5,0.1,5,0.2,7.5,0.4c6.1,0.3,12.4,0.7,18.6,0.7
		c1.7-0.1,3.3-0.9,4.3-2.3c1.4-1.7,1.9-4,1.4-6.2c-0.5-1.3-1.7-2.3-3.1-2.6c-1.4,0-2.7,0.7-3.6,1.9c-0.5,0.9-0.7,1.8-0.7,2.8
		c0,0.2,0,0.5-0.1,0.8h-0.4c-0.3,0-0.5,0-0.8-0.1C88.3,1.7,73.6-0.8,54.8,0.2C46.2,0.7,35,2,24.9,7.9c-3.2,1.9-6.4,4.2-6.7,10.2v0.7
		l0.7-0.2C19.7,18.4,20.6,18.2,21.4,18z"/>
</g>
</svg>
