<svg xmlns="http://www.w3.org/2000/svg" viewBox="0 0 128 128">
<g fill="currentColor">
	<path d="M63.5,34.6l3.7-2.7l-4.6-0.6c-1.6-0.2-3.1-0.5-4.5-0.7c-2.8-0.6-5.7-0.9-8.6-0.9c-2.9,0.1-5.7,0.5-8.5,1.2l-0.4,0.1
		c1.8-3.4,5-5.4,8.4-7.1l1.5-0.8l-3.9-9.5l-1.7,0.7c-8.3,3.4-13.6,9.1-15.9,17.3c-7.3-2.7-15-2.6-23.9,0.3L1.8,33l2.6,2.1
		c6.1,5,10.3,9.9,10.9,16.7c0.6,6.8-3.8,11.9-8.4,17.2l-1.5,1.7l1.6,1.2c7.2,5.2,10.8,11.7,10.4,18.2c-0.5,6.8-5.7,13.2-14.7,18
		L0,109.6l2.6,1.7c6.4,4.2,12.2,6.2,17.9,6.2c3.7,0,7.4-0.9,10.7-2.5c1.6-1,3.7-1,5.3,0c9.2,4.4,22.6,2.3,28.3-4.5l1.7-2l-2.5-0.9
		c-9-3.3-13.8-8.4-15-15.9c-1.2-7.5,1.7-14,9-19.6l1.6-1.2l-1.4-1.5c-4.9-5.4-9.1-10.8-7.7-18.2C52,44.2,56.7,39.6,63.5,34.6z
		 M54.3,70.4C47,76.6,44,83.9,45.4,92.3c1.3,8,6.2,13.8,14.7,17.6c-5.4,4-15.1,4.9-21.9,1.7c-2.7-1.4-5.9-1.4-8.5,0
		c-7.1,3.4-14.1,2.9-22.3-1.8c8.4-5.2,13.3-12,13.9-19.4C21.7,83,18.1,76,10.9,70.2c4.5-5.2,8.8-10.7,8.1-18.6
		c-0.6-7.4-4.8-12.6-9.6-17c7.5-1.9,13.8-1.5,20.1,1.3l2.1,0.9l0.5-2.3c1.3-7.1,6-13,12.5-16l1.2,2.9c-4.2,2.3-8.4,5.6-9.8,11.6
		l-0.6,2.7l2.8-0.5c1.2-0.2,2.5-0.5,3.7-0.7c2.6-0.6,5.2-1,7.9-1.1c2.7,0.1,5.3,0.3,7.9,0.9l0.3,0.1c-5.6,4.6-9.5,9.4-10.8,16.2
		C45.4,58.8,49.5,64.9,54.3,70.4z"/>
	<path d="M128,66.7V56.2h-21.5v-3.1h19.9V42.7h-19.8V38h18.6l-0.4-2.2c-1.8-10.6-5.7-20.5-10.4-26.4C110.6,4.6,105.9,2,101,2
		c-4.8,0-9.3,2.5-13,7.1c-6.4,8-9,17.5-10.8,26.7L76.7,38h18.8v4.8H75.8v10.5h19.9v3H74.1v10.5h21.5V70H77.4v10.3h18.1v5H80.8v10.3
		h14.9c0.6,8.3,0.3,8.8-4.5,15.4c-2,2.8-4.1,5.7-6.1,8.5l-4.7,6.5h41.1l-2.1-2.9c-1-1.3-1.9-2.7-2.8-4c-2-3.2-4.3-6.2-6.8-9.1
		c-3.9-4.2-3.9-8.8-3.5-14.6h14.9V85h-14.7v-4.8h18V69.7h-18.1v-3L128,66.7z M121,73.4v3.1h-18.1v12.2h14.7v3H103l-0.2,1.9
		c-0.5,6.8-1.1,13.1,4.3,18.9c2.4,2.7,4.5,5.6,6.5,8.6l0.8,1.2H87.7l0.4-0.6c2-2.8,4-5.6,6.1-8.5c5.8-8,5.9-8.4,5-19.5L99.2,92H84.6
		v-3h14.7V76.6H81.1v-3h18.2V63.1H77.8V60h21.5V49.6H79.5v-3.1h19.8V34.3h-18c1.7-8,4.2-16.2,9.6-22.9c3-3.8,6.5-5.7,10.1-5.7
		c3.7,0,7.4,2.1,10.5,6c3.9,4.9,7.4,13.4,9.2,22.5h-17.8v12.2h19.8v3h-19.9v10.5h21.5V63h-21.5v10.4L121,73.4z"/>
	<path d="M106.3,29.5l0.3-0.1c4.2-0.8,6.6-3.5,6.4-7.3c0-1.9-0.9-3.6-2.2-4.9c-1.4-1.2-3.2-1.8-5.1-1.6c-3.6,0.1-6.4,3-6.4,6.6
		c0,0.1,0,0.2,0,0.3c0.1,3.8,2.5,6.3,6.7,6.9L106.3,29.5z M103,22.5L103,22.5c-0.1-1.6,1-3,2.6-3.1c0.1,0,0.2,0,0.4,0h0.3
		c0.7,0,1.4,0.2,2,0.7c0.6,0.6,1,1.4,1,2.3c0,0.7,0.2,2.6-3,3.3C103.4,25.3,103,23.7,103,22.5z"/>
</g>
</svg>
