<svg xmlns="http://www.w3.org/2000/svg" viewBox="0 0 128 128">
<g fill="currentColor">
	<path d="M77.1,105.5c0.9,1.2,2.4,3.1,4.4,3.8c0.7,0.2,1.4,0.4,2.2,0.4c1,0,2-0.2,2.8-0.7c1.9-1.2,3.2-3.2,3.6-5.4
		c0.2-1,0.3-2,0.4-3l1.6-19.3c1-11.6,1.9-23.3,2.9-34.9c0.5-6.1-2.8-8-5.8-8.5c-2-0.4-4.1,0-5.7,1.2c-1.1,0.9-2.5,2.6-2.8,5.9
		c-1.2,13.8-2.4,27.7-3.5,42.2l-1.4,17l0.6,0.6C76.8,105,76.9,105.2,77.1,105.5z M81.1,87.5c1.2-14.6,2.3-28.4,3.5-42.2
		c0-1.2,0.4-2.4,1.3-3.3c0.8-0.5,1.9-0.7,2.8-0.4c1.9,0.3,2.9,1.1,2.6,4.4c-1,11.6-1.9,23.3-2.9,34.9l-1.6,19.4
		c0,0.8-0.1,1.6-0.3,2.4c-0.2,1.2-0.8,2.2-1.8,3c-0.6,0.3-1.4,0.3-2,0.1c-1-0.3-2-1.6-2.6-2.5l-0.3-0.4L81.1,87.5z"/>
	<path d="M63.8,109.6h0.3c1.8,0.1,3.5-0.5,4.8-1.7c1.9-1.9,2.1-4.8,2.1-7.1c0-7.5,0-15,0-22.5V46.8c0-2.9,0-8.8-7-8.9
		c-1.8-0.1-3.6,0.5-5,1.8c-1.5,1.5-2.2,3.8-2.2,7c0,8.4,0,16.7,0,25c0,9.6,0,19.3,0,28.9C56.7,106.4,59.1,109.4,63.8,109.6z
		 M60.5,71.7c0-8.3,0-16.7,0-25c0-2.1,0.4-3.6,1.1-4.3c0.6-0.5,1.4-0.8,2.2-0.7h0.1c2.6,0,3.3,1,3.3,5.1v31.4c0,7.5,0,15,0,22.5
		c0,1.5-0.1,3.5-1,4.4c-0.6,0.5-1.5,0.8-2.3,0.6c-2.2-0.1-3.4-0.9-3.4-5.2C60.5,91,60.5,81.3,60.5,71.7z"/>
	<path d="M19.4,26.2c0,0.3,0,0.6-0.1,0.9c-0.1,0.6-0.1,1.2,0,1.9l1.5,14.5c2.4,24,4.9,48,7.4,72c1,9.4,4.5,12.5,13.9,12.6
		c8.8,0,17.5,0,25.7,0H86c8.9,0,13-3.9,13.9-12.8c1.2-12.8,2.5-25.8,3.8-38.4c0.8-7.5,1.5-15.1,2.3-22.6c0.6-6.3,1.2-12.6,1.8-18.9
		l1-10.9H19.5L19.4,26.2z M23.1,28.2l81.5,0l-0.6,6.7c-0.6,6.3-1.2,12.6-1.8,18.9c-0.7,7.5-1.5,15.1-2.3,22.6
		c-1.3,12.6-2.6,25.6-3.8,38.4c-0.7,7.1-3.1,9.4-10.1,9.4c-13,0-28.3,0-44,0c-7.5,0-9.3-1.7-10.1-9.2c-2.5-24-5-48-7.4-72.1
		l-1.5-14.5C23.1,28.4,23.1,28.3,23.1,28.2z"/>
	<path d="M34,61.3c1.1,13.8,2.3,27.5,3.4,41.1c0.1,2.1,1,4.2,2.6,5.6c1.2,1,2.7,1.5,4.2,1.5c0.3,0,0.5,0,0.8,0
		c4.4-0.4,7-3.8,6.6-8.5c-0.7-9.3-1.5-18.8-2.3-27.9l-0.5-6.2c-0.6-7.4-1.3-14.9-2-22.4c-0.4-4.2-3.2-6.7-7.5-6.6
		c-2.2,0.1-6,1.1-6.5,6.9c0,0.7,0,1.4,0,2.1c-0.1,0.2,0,0.4,0,0.5L34,61.3z M36.6,46.7c0-0.5,0-1.1,0-1.6c0.3-2.9,1.5-3.4,2.9-3.4
		c2.2-0.1,3.3,1,3.6,3.2c0.7,7.4,1.4,15,2,22.4l0.5,6.2c0.8,9.1,1.6,18.6,2.3,27.9c0.2,2.8-0.9,4.3-3.2,4.5
		c-0.8,0.1-1.6-0.1-2.3-0.6c-0.8-0.8-1.2-1.9-1.3-3c-1.2-13.7-2.3-27.3-3.4-41.1l-1.1-13.8C36.6,47.1,36.6,46.9,36.6,46.7z"/>
	<path d="M112.3,6.9C110.7,5.1,108,5,104.8,5h-7.3c-5.2,0-10.4,0-15.6,0c-0.7,0-1.3-0.1-2-0.3C78.1-0.1,74,0,71.2,0h-1.1
		c-4.4,0-8.9,0-12.9,0.1h-0.9c-2.5,0-6.5,0-8.2,4.4c-0.8,0.2-1.6,0.3-2.4,0.3c-4.7,0-9.4,0-14,0c-2.8,0-5.6,0-8.5,0
		c-3,0-6,0.3-7.7,2.4s-1.1,5.3-0.3,8.4l0.4,1.4h97.3l0.2-1.6C113.7,11.1,113.8,8.6,112.3,6.9z M109.6,13.2h-91
		c-0.4-1.9-0.4-3.2,0-3.7c0.4-0.5,2-0.9,4.7-0.9h8.4c4.6,0,9.4,0.1,14,0c1.9,0,5.1-0.4,5.8-2.4c0.8-2.2,1.9-2.3,4.8-2.3h0.9
		c4-0.1,8.4-0.1,12.8-0.1h1.2c3,0,4.5,0,5.2,2.6c0.6,1.9,3.3,2.3,5.4,2.3c5.2,0.1,10.4,0.1,15.7,0h7.3c1.1,0,4,0,4.6,0.7
		C110,10.1,109.8,11.7,109.6,13.2z"/>
</g>
</svg>
