<svg xmlns="http://www.w3.org/2000/svg" viewBox="0 0 128 128">
<g fill="currentColor">
<path d="M96.5,128H31.1l5.9-4.4c5.6-4.2,11.9-8.8,19.7-6.9l-4.1-19.6c-6.4,5.6-14.7,1.4-18-0.2c-4.8-2.5-9.1-5.8-12.8-9.8
	c-4.3-4.5-8.2-9.2-12.1-13.8c-1.6-1.9-3.2-3.8-4.8-5.7l-2-2.4l3-0.6c2-0.4,4.1-0.9,6.2-1.4c5-1.2,10.2-2.4,15.5-3.1
	c11.4-1.5,22.4,4.2,27.8,14.3c0.3-2.2-0.3-4-2.2-6.1c-5.3-6.1-2.7-13.3-0.5-19.1c0.2-0.5,0.4-1,0.6-1.5C57,37.9,64.3,30.9,75.3,27
	c4.8-1.7,9.7-3.1,14.5-4.4l5-1.4c9.4-2.7,19.1-6,25.7-15L125,0l-1.2,7.6c-0.4,2.4-0.7,4.7-1,7.1c-0.8,5.3-1.5,10.8-2.8,16.2
	c-2.4,9.8-4.6,18.6-8.2,27c-5.3,12.3-15.5,20.8-30.4,25c-4.2,1.2-10.2,2.1-16-2.3c-0.1,0.4-0.1,0.7-0.2,1.1
	c-1.8,8.2-3.5,15.9,0.1,23.7c1.5,3.4,2.7,6.8,3.8,10.3c0.4,1.4,0.9,2.8,1.4,4.2c1.8,0,3.7,0,5.5-0.2c6-0.5,12.9-1,18.2,5.4L96.5,128
	z M42.4,124.3h45c-3.4-1.7-7.2-1.3-11.3-1c-2.4,0.3-4.9,0.3-7.4,0.1l-1.1-0.1l-0.4-1.1c-0.7-1.9-1.2-3.7-1.8-5.4
	c-1-3.4-2.2-6.7-3.6-9.9c-4.1-8.9-2.2-17.2-0.3-26c0.3-1.4,0.6-2.8,0.9-4.2l0.7-3.6l2.5,2.7c4,4.3,8.4,5.4,14.7,3.6
	c13.7-3.9,23.2-11.7,28-22.9c3.5-8.1,5.7-16.8,8-26.4c1.2-5.2,2-10.6,2.8-15.8c0-0.3,0.1-0.6,0.1-0.9c-6.8,6.4-15.2,9.3-23.4,11.6
	l-5,1.4c-4.7,1.3-9.6,2.6-14.3,4.3C66.6,34,60,40.2,57,48.9c-0.2,0.5-0.4,1-0.6,1.6c-2,5.4-4,11-0.1,15.3c4.1,4.7,3.7,8.7,1.6,14.1
	l-1.4,3.7l-2.6-4.8c-0.4-0.7-0.7-1.2-0.9-1.8c-4.8-9.6-14.5-14.8-24.5-13.4c-5.2,0.7-10.3,1.9-15.2,3l-3.3,0.8
	c0.9,1.1,1.9,2.2,2.8,3.3c3.8,4.6,7.7,9.3,11.9,13.6c3.4,3.7,7.4,6.7,11.8,9.1c7.9,4,12.5,3.5,15.9-1.5l2.4-3.6l7.1,34.3l-3.3-1.5
	C52.3,118.4,47.5,120.7,42.4,124.3z"/>
</g>
</svg>
