<svg xmlns="http://www.w3.org/2000/svg" viewBox="0 0 128 128">
<g fill="currentColor">
	<path d="M44.6,38.6c2.1-1.4,2.9-4.1,2.1-6.4c-0.1-0.5-0.5-0.8-1-0.7l-7.5-0.3c-0.4,0.1-1-0.3-1.4,0.5c-1.1,2.2-0.6,4.8,1.1,6.5
		C39.7,39.8,42.4,40,44.6,38.6z"/>
	<path d="M46.5,27.1l-9.5-0.5v3.5l9.5,0.5V27.1z"/>
	<path d="M127.8,58.7c-0.9-12-5.3-23.5-12.6-33.1c-10.1-13.6-25.2-22.6-42-25C56.3-1.8,39.1,2.6,25.4,13
		C14.5,21.2,6.5,32.7,2.7,45.8c-1.3,4.3-2.1,8.8-2.4,13.3c-0.1,1.2-0.2,2.2-0.2,3.4v3c0,0.3,0.1,0.7,0.1,1c0.1,4.6,0.8,9.2,2,13.6
		C5.9,95,15,108,27.7,116.7c11.7,8.2,25.9,12.1,40.1,11.2c4.9-0.2,9.8-1.1,14.5-2.6c19.7-6.3,33.5-19,41.3-38.2
		c2.3-5.7,3.7-11.8,4.1-17.9c0.1-0.9,0.2-1.8,0.2-2.8v-4.9C127.9,60.6,127.8,59.7,127.8,58.7z M63.9,118.8
		C33.7,118.7,9.2,94.1,9.3,63.9S33.9,9.2,64.1,9.2c30.2,0.1,54.7,24.6,54.7,54.8C118.8,94.3,94.2,118.8,63.9,118.8
		C64,118.8,64,118.8,63.9,118.8z"/>
	<path d="M49,72.3c-1-0.6-1.6-1.8-1.4-3c0-0.1-0.1-0.2-0.1-0.2l-10.6-0.6c-0.1,0.9-0.1,1.8,0,2.8c0,0.9,0.3,1.9,0.7,2.7
		c0.8,1.4,1.5,2.9,1.8,4.5c0.1,0.5,0.1,1,0,1.5c-1,2.8-2.1,5.6-3.1,8.4s-2.2,5.5-3.2,8.2c-0.2,0.7-0.3,1.4-0.2,2.1
		c0.3,1.5,1.7,2.7,3.3,2.7c1.6,0.2,3.1-0.8,3.4-2.3c0.2-0.5,0.3-0.9,0.4-1.4c1.4-3.1,2.8-6.2,4.3-9.2c1.4-2.6,2.4-5.4,3.2-8.2
		c1,1.5,2.2,2.9,3.1,4.5c2.3,4,3.7,8.4,4.2,12.9c0.1,1.4,1.1,2.7,2.4,3.1c2.5,0.9,4.8-0.7,4.5-3.3c-0.2-1.8-0.5-3.6-0.9-5.4
		C59.1,84.3,54.9,77.4,49,72.3z"/>
	<path d="M59.2,50.4L59.2,50.4L59.2,50.4z"/>
	<path d="M95,52.6c-0.5-4.8-3.5-9-7.8-11.2c-1.5-0.7-3-1.2-4.5-1.7c0.2-1.6-0.2-3-2.7-3.4c0-0.4,0-0.8,0-1.3s0.1-0.9-0.5-0.9
		s-0.6,0.4-0.6,0.8v1.3c-2.1,0.5-2.6,1.1-2.6,3.5c-6.8,1.6-10.9,5.7-12.3,12.7c-0.1-0.1-0.2-0.3-0.3-0.4c-0.5-1-1.5-1.6-2.6-1.7
		c-0.6,0-1.3,0-1.9,0.1c-0.1,2.3-0.2,4.7-0.3,7c0.3-0.1,0.5-0.1,0.8-0.1c1.5,0,3.1,0,4.3-1.5v34.2h31.1v-1.1c0-11.2,0-22.4,0-33.7
		C95.1,54.3,95.1,53.4,95,52.6z M92.4,86.5c0,0.2,0,0.4,0,0.7H66.6v-1c0-10.5,0-21,0-31.4c-0.2-5.8,3.8-10.9,9.5-12.2
		c5.7-1.2,11.1,0.1,14.6,5.6c1.1,1.7,1.7,3.7,1.7,5.7C92.5,64.8,92.4,75.7,92.4,86.5z"/>
	<path d="M58.9,57.3L58.9,57.3L58.9,57.3z"/>
	<path d="M40.6,40.8c-2.5,0.5-4.3,2.9-4.1,5.5c0.1,1.2,0.2,2.3,0.2,3.5c0.1,5.4,0.1,10.8,0.2,16.2v1l10.7,0.5V55.2l1.1,0.3
		c2.6,0.9,5.4,1.5,8.1,1.6c0.1-2.3,0.2-4.5,0.3-6.8c-0.4,0-0.8-0.1-1.2-0.2c-2.9-0.4-5.7-1.3-8.3-2.6c-0.2-0.1-0.3-0.3-0.3-0.5
		c-0.1-0.5-0.1-1.1-0.2-1.6c-0.3-2.9-2.8-5-5.7-4.8C41.1,40.7,40.9,40.8,40.6,40.8z"/>
	<path d="M71.3,92.6c-1.9,0.1-3.5,1.7-3.5,3.6c0,1.9,1.6,3.5,3.5,3.5c0,0,0.1,0,0.1,0c1.9,0.1,3.5-1.4,3.5-3.3c0-0.1,0-0.1,0-0.2
		c0.1-1.9-1.5-3.6-3.4-3.6C71.4,92.6,71.4,92.6,71.3,92.6z"/>
	<path d="M86.9,92.6c-1.9,0.1-3.4,1.6-3.5,3.5c-0.1,1.9,1.4,3.6,3.4,3.6c1.9,0.1,3.5-1.3,3.7-3.2c0-0.1,0-0.2,0-0.2
		C90.5,94.3,88.9,92.7,86.9,92.6C86.9,92.6,86.9,92.6,86.9,92.6z"/>
	<path d="M56.8,57.2L56.8,57.2L56.8,57.2L56.8,57.2L56.8,57.2L56.8,57.2z"/>
	<path d="M58.8,57.3L58.8,57.3L58.8,57.3z"/>
	<path d="M58.8,58.2v-0.9l-2-0.2C56.6,58.4,57,58.6,58.8,58.2z"/>
	<path d="M59.2,50.3L59.2,50.3L59.2,50.3z"/>
	<path d="M57.2,50.4L57.2,50.4L57.2,50.4L57.2,50.4L57.2,50.4z"/>
	<path d="M59.2,49.6h-2v0.8h2V49.6z"/>
	<rect x="68.6" y="56.8" width="7.6" height="19.9"/>
	<path d="M90.2,66.8h-3.9v-2.3h-4.4v2.3h-4.3v9.9h12.7V66.8z M85.4,66.8h-2.6v-1.6h2.6V66.8z"/>
	<rect x="69.2" y="79.4" width="21.1" height="5.5"/>
</g>
</svg>
