<svg xmlns="http://www.w3.org/2000/svg" viewBox="0 0 128 128">
<path d="M64,0C39.2,0,19,19.9,19,44.4c0,12.7,5.5,24.9,15.2,33.3c0.1,0.1,0.2,0.2,0.3,0.2c0.1,0,6.3,5.1,10,17.5v20.4
	c0,1.6,1.3,2.9,2.9,2.9c0,0,0,0,0,0h4.8c1.6,6.5,8.2,10.5,14.8,8.9c4.4-1.1,7.9-4.5,9-8.9h4.8c1.6,0,2.9-1.3,2.9-2.9c0,0,0,0,0,0
	V95.5c3.7-12.5,9.9-17.5,9.9-17.5l0.3-0.3c18.6-16.3,20.3-44.4,3.8-62.8C89.1,5.4,76.9,0,64,0z M77.7,98.4v4.4H50.2v-4.4H77.7z
	 M64,122.2c-2.4,0-4.6-1.3-5.7-3.5h11.4C68.6,120.9,66.4,122.2,64,122.2z M73.3,113H50.2v-4.4h27.5v4.4L73.3,113z M89.8,73.5
	L89.8,73.5c-1.4,1.2-7.6,6.8-11.4,19.1H66.9V68.4c1.5,0.2,2.9,0.2,4.4,0.2c7.4,0,13.3-2.1,17.5-6.3c9.3-9.2,6.9-24.7,6.8-25.4
	c-0.2-1.2-1.2-2.2-2.4-2.4c-0.7-0.1-16.4-2.5-25.7,6.7c-1.4,1.4-2.5,2.9-3.5,4.6c-0.9-1.7-2.1-3.2-3.5-4.5c-9.3-9.2-25-6.8-25.7-6.7
	c-1.2,0.2-2.2,1.2-2.4,2.4c-0.1,0.6-2.5,16.2,6.8,25.4c4.2,4.2,10.1,6.3,17.5,6.3c1.5,0,2.9-0.1,4.4-0.3v24.3H49.6
	c-3.9-12.3-10-17.9-11.4-19l-0.1-0.1C21.9,59.4,20.3,35,34.6,18.9s39-17.7,55.3-3.6s17.9,38.5,3.6,54.6
	C92.3,71.2,91.1,72.4,89.8,73.5z M86,44c-1.1-1.1-3-1.1-4.1,0L67,58.8c0-5.8,1.5-10.3,4.6-13.4C77,40,85.9,39.8,90,40.1
	c0.2,4.1,0,12.9-5.4,18.2c-3.1,3.1-7.7,4.6-13.6,4.6l15-14.8C87.2,47,87.2,45.1,86,44z M46.1,44c-1.1-1.1-3-1.1-4.1,0
	c-1.1,1.1-1.1,3,0,4.1l0,0l15,14.8c-5.9,0-10.4-1.5-13.6-4.6C38,53,37.8,44.1,38,40.1c4.1-0.2,13.1,0,18.5,5.3
	c3.1,3.1,4.7,7.6,4.6,13.4L46.1,44z" fill="currentColor"/>
</svg>
