<svg xmlns="http://www.w3.org/2000/svg" width="370.26" height="225.77" viewBox="0 0 370.26 225.77"><path d="M154.58,4.45C78.4,20.64,18.07,82.31,3.54,158.82A197.78,197.78,0,0,0,.75,213.26a13.78,13.78,0,0,0,18,11.81l.94-.31a14,14,0,0,0,9.33-14.61,169.89,169.89,0,0,1,2.6-46.56C44.46,97.72,97.23,44.86,163.05,31.83A167.48,167.48,0,0,1,310.81,73.74l-12.37,9.4a10.72,10.72,0,0,0,1.95,18.24L355,126.85a10.72,10.72,0,0,0,15.24-10.13v-.19a9.2,9.2,0,0,0-.13-1.15l-9.88-59.47a10.71,10.71,0,0,0-17.05-6.77l-9.47,7.19c-37.93-37.11-90.5-59-147.55-56.06a203.6,203.6,0,0,0-31.58,4.18" fill="currentColor"/></svg>