<svg xmlns="http://www.w3.org/2000/svg" viewBox="0 0 128 128">
<g fill="currentColor">
	<path d="M122.3,57.7l-0.3,0.1c-2,0.6-3.4,2.5-3.3,4.6c0.9,30.2-22.8,55.4-52.9,56.3c-15.4,0.5-30.3-5.6-41-16.7l4.1-2.8
		c1.6-1.1,2-3.3,0.9-4.9c-0.3-0.5-0.7-0.8-1.2-1.1L11.2,84c-1.7-0.9-3.8-0.3-4.7,1.5c-0.3,0.6-0.5,1.3-0.4,2l2.2,19.5
		c0.2,1.9,2,3.3,3.9,3.1c0.6-0.1,1.1-0.3,1.5-0.6l3.2-2.2c23.8,26,64.2,27.8,90.3,4C120.4,99.2,128,82.1,128,64.2l0,0
		c0-0.7,0-1.5,0-2.2c-0.1-2.5-2.1-4.4-4.5-4.4C123.1,57.6,122.7,57.6,122.3,57.7"/>
	<path d="M53.7,0.8C28.5,5,8.1,23.7,1.9,48.5C0.5,54.2-0.1,60.2,0,66.1c0.1,2.5,2.1,4.4,4.6,4.3c0.4,0,0.8-0.1,1.2-0.2h0.3
		c2-0.6,3.4-2.5,3.3-4.6C9.2,60.6,9.7,55.4,11,50.5c7.4-29.2,37.1-47,66.4-39.5c9.9,2.5,18.9,7.7,26,15.1l-4.2,2.8
		c-1.6,1.1-2,3.3-0.9,4.9c0.3,0.5,0.7,0.8,1.2,1.1l17.3,9.2c1.7,0.9,3.8,0.3,4.7-1.5c0.3-0.6,0.5-1.3,0.4-2l-2.2-19.4
		c-0.2-1.9-2-3.3-3.9-3.1c-0.6,0.1-1.1,0.3-1.6,0.6l-3.2,2.2C99,7.6,81.9,0,64,0C60.5,0,57.1,0.3,53.7,0.8"/>
</g>
</svg>
