<svg xmlns="http://www.w3.org/2000/svg" viewBox="0 0 128 128">
<g fill="currentColor">
	<path d="M44,97.2h39.9V53.7H44V97.2z M46.9,56.4h34v38.1h-34V56.4z"/>
	<path d="M46,51.9c5.3-0.1,10.5-0.1,15.8-0.1h17.4c6,0,6.5-0.4,7.2-6c0-0.4,0-0.9,0-1.3c0-9.7-4.2-17.7-12.2-23.9
		c-2-1.6-3.8-3-3.1-5.9H56.2c1,2.9-0.8,4.4-2.8,5.9c-1.4,1-2.6,2-3.7,3.2c-6.7,7.3-10,15.6-7.6,25.3C42.6,51.1,43.6,51.9,46,51.9z
		 M45.4,36.4c1.4-4,3.7-7.7,6.7-10.8c1-1,2.1-2,3.3-2.8c1.3-0.9,3.6-2.5,4.1-5.3h8.9c0.2,0.7,0.5,1.5,1,2.1c0.9,1.2,2,2.2,3.2,3.1
		c3.5,2.7,6.4,6,8.4,9.7c1.9,3.8,2.9,7.9,2.8,12.1v0.2c0,0.3,0,0.6,0,0.8c-0.1,0.9-0.3,1.9-0.4,2.6c-0.1,0.3-0.1,0.5-0.3,0.7
		c-1.2,0.2-2.4,0.3-3.6,0.2H61.9c-6.4,0-11.2,0-15.9,0.1h-0.1c-0.2,0-0.4,0-0.6,0c-0.1-0.2-0.1-0.4-0.2-0.6
		C43.9,44.6,44.1,40.4,45.4,36.4z"/>
	<path d="M86.9,105.3c-0.2-1.4-0.5-2.7-1-4c-0.2-1.3-1.6-2.1-2.9-1.9h-0.2c-6.3,0.1-12.7,0-19,0H46.5c-4,0-5.2,0.8-5.4,4.5
		c-0.2,5.9-0.2,11.8,0,17.7c0.1,2.8,2.3,5.2,5.3,5.7c2.8,0.4,6.1,1.4,8.2-1.7c1.2-1.8,2.3-1.1,3.5,0.1c2.6,2.8,9.2,2.7,11.6-0.1
		c1.4-1.6,2.4-1.3,3.6,0.1c0.5,0.7,1.2,1.3,2,1.7c4.3,1.6,9.2-0.4,10.9-4.4c0.3-0.8,0.5-1.6,0.6-2.4C87.1,115.6,87,110.4,86.9,105.3
		z M83.9,120.6c-0.1,1.3-0.7,2.5-1.7,3.4c-1,0.9-2.4,1.3-3.8,1.3c-0.7,0-1.3-0.1-1.9-0.3c-0.3-0.3-0.6-0.6-0.9-0.9
		c-1-1.3-2.5-2.1-4.2-2.2c-1.6,0.1-3.1,0.9-4,2.1c-1,0.8-2.3,1.2-3.6,1.1c-1.3,0.1-2.5-0.3-3.5-1.1c-1-1.3-2.5-2.1-4.2-2.2
		c-1.7,0.1-3.3,1-4.1,2.4c-0.3,0.6-1.1,1-1.8,0.9c-0.8,0-1.6-0.1-2.4-0.3l-0.9-0.2c-0.8-0.1-1.5-0.5-2-1.1c-0.5-0.6-0.8-1.3-0.9-2
		c-0.1-7.1-0.1-12.6,0-17.6c0-0.6,0.1-1.2,0.2-1.7c0.7-0.2,1.4-0.2,2.2-0.2h27.7c3.4,0,6.1,0,8.7-0.1h0.2c0.1,0.3,0.2,0.6,0.3,0.9
		c0.3,0.8,0.5,1.6,0.6,2.4v0.5C84,110.7,84.1,115.7,83.9,120.6z"/>
	<path d="M74,12.7c0-3.3,0.1-6.2,0-9.2c0.1-1.8-1.4-3.4-3.3-3.5c-0.1,0-0.3,0-0.4,0C66.1,0,61.9,0,57.8,0c-2.1-0.1-3.9,1.4-4,3.3
		c0,0.1,0,0.2,0,0.3c-0.2,2.9,0,5.9,0,9.1L74,12.7z M56.7,3.8c0-0.3,0.1-0.6,0.3-0.8c0.2-0.2,0.5-0.2,0.8-0.2c1.7,0,3.9,0,6.1,0
		c2.2,0,4.4,0,6.2,0.1c0.2,0,0.5,0,0.7,0.2C71,3.2,71,3.5,71,3.7c0.1,2,0.1,4,0,6.1V10H56.6V9.8C56.6,7.7,56.6,5.7,56.7,3.8z"/>
	<path d="M48.9,92.3c1.8-1.2,2.1-31.6,0.6-34C48.3,59.5,47.7,87.6,48.9,92.3z"/>
	<path d="M50.1,34c1.8-4,5-7.4,7.6-11.1c-5.6-1-13.6,15.3-10.8,23.2C48.1,42.1,48.3,37.8,50.1,34z"/>
	<path d="M46.7,104.1c-0.3,0.6-1,1.2-1,1.8c-0.1,4.6-0.1,9.2,0,13.8c0,0.6,0.7,1.1,1.1,1.7c0.3-0.6,0.9-1.2,1-1.8c0.1-2.3,0-4.7,0-7
		c0.1-2.1,0.1-4.3,0-6.5C47.8,105.4,47.1,104.7,46.7,104.1z"/>
</g>
</svg>
