<svg xmlns="http://www.w3.org/2000/svg" viewBox="0 0 128 128">
<g fill="currentColor">
	<path d="M66.2,27.6l7.4,12.5l-7.9,4.5c-0.9,0.5-1.2,1.7-0.7,2.6c0.3,0.5,0.7,0.8,1.3,0.9l31.5,6.8c0.1,0,0.3,0,0.4,0
		c0.8,0,1.6-0.5,1.8-1.3l9.7-30.2c0.3-1-0.2-2.1-1.3-2.4c-0.5-0.2-1.1-0.1-1.6,0.2l-7.5,4.3L87.2,7.8c-0.1-0.2-0.3-0.3-0.4-0.4
		c-11-8.2-24-9.5-38.5-4c-2.6,1-5.1,2.2-7.4,3.8l-0.1,0.1l-0.2,0.1c-2.3,2.3-12.5,18.2-13.6,20c-0.3,0.4-0.4,1-0.2,1.5
		c0.1,0.5,0.5,0.9,0.9,1.2L50,42.9c0.3,0.2,0.7,0.3,1,0.3c0.7,0,1.3-0.3,1.7-0.9L64,24C64.8,25.1,65.5,26.3,66.2,27.6z M50.4,38.7
		l-19-10.9c3.9-6,9.4-14.4,11.5-17c4.7,0.6,9.2,2.4,13.1,5.2c2,1.4,3.8,3.1,5.5,4.9L50.4,38.7z M59.6,13.8C56.1,11,52,9,47.7,7.8
		c0.6-0.3,1.3-0.6,1.9-0.8c4.9-1.9,19.8-7.6,34.5,3.2L97.2,29c0.6,0.8,1.7,1.1,2.6,0.6l4.7-2.7l-7.7,23.9l-24.9-5.4l5.2-3
		c0.4-0.3,0.8-0.7,0.9-1.2c0.1-0.5,0.1-1-0.2-1.5l-8.3-14.1c-1.3-2.4-2.8-4.6-4.5-6.6C63.5,17.1,61.6,15.4,59.6,13.8z"/>
	<path d="M48.1,88.2l-21.7-0.5c0.6-1.3,1.3-2.5,2-3.7l7.4-12.5l7.8,4.5c0.9,0.5,2.1,0.2,2.7-0.7c0.3-0.5,0.3-1,0.2-1.6l-9.8-30.2
		c-0.3-0.9-1.3-1.5-2.3-1.3L2.9,49c-1,0.2-1.7,1.2-1.5,2.3c0.1,0.5,0.5,1,0.9,1.2l7.5,4.3L0.5,76.1c-0.1,0.2-0.2,0.4-0.2,0.6
		c-1.7,13.5,3.6,25.2,15.8,34.8c2.1,1.7,4.5,3.2,7,4.4h0.1c0.1,0,0.2,0.1,0.2,0.1c3.2,0.8,22.3,1.5,24.4,1.6h0.1
		c0.5,0,1-0.2,1.4-0.5c0.4-0.4,0.6-0.9,0.6-1.4L50,90.1C50,89.1,49.1,88.2,48.1,88.2z M21.5,89.3c-0.9,2.3-1.6,4.8-1.9,7.2
		c-0.7,4.4-0.5,8.9,0.6,13.2c-0.5-0.4-1.1-0.8-1.7-1.3h0.1c-4.1-3.2-16.6-13.1-14.4-31l10-20.5c0.4-0.9,0.1-2-0.8-2.5l-4.8-2.7
		l24.9-5.4l7.7,23.9l-5.2-3c-0.9-0.5-2.1-0.2-2.7,0.7l-8.3,14.1C23.6,84.3,22.4,86.7,21.5,89.3z M46,113.6
		c-7.2-0.3-17.3-0.8-20.7-1.3c-1.8-4.4-2.5-9.1-2-13.8c0.3-2.4,0.8-4.8,1.6-7.1L46.1,92L46,113.6z"/>
	<path d="M127.9,76.7C127.9,76.7,127.9,76.7,127.9,76.7c0-0.2,0-0.2,0-0.3c-0.9-3.1-9.8-19.7-10.8-21.6c-0.5-0.9-1.7-1.3-2.7-0.8
		c0,0,0,0,0,0L91.9,66.7c-0.9,0.5-1.2,1.7-0.7,2.6L101.6,88c-1.4,0.1-2.8,0.2-4.2,0.1H82.6v-9c0-1.1-0.9-1.9-2-1.9
		c-0.5,0-1,0.2-1.4,0.6l-21.7,23.4c-0.7,0.7-0.7,1.8,0,2.6l21.7,23.5c0.4,0.4,0.9,0.6,1.4,0.6c0.2,0,0.5,0,0.7-0.1
		c0.7-0.3,1.2-1,1.2-1.8v-8.6l21.6-1.6c0.2,0,0.4-0.1,0.6-0.1c12.7-5.2,20.3-15.6,22.7-30.9C128,82.2,128.1,79.5,127.9,76.7z
		 M95.5,69.1l19.1-10.7c3.4,6.3,8,15.2,9.2,18.3c-2.9,3.7-6.7,6.7-11.1,8.6c-2.3,1-4.7,1.7-7.1,2.2L95.5,69.1z M123.7,84.3
		c-0.8,5.1-3.2,20.7-20.1,27.8l-23.1,1.7c-1,0.1-1.8,0.9-1.8,1.9v5.4l-17.2-18.5l17.2-18.5v6c0,1,0.9,1.9,1.9,1.9h16.5
		c2.7,0.1,5.4-0.1,8.1-0.6c2.5-0.4,5-1,7.4-2c4.2-1.6,8.1-4,11.3-7.2C123.9,82.9,123.8,83.6,123.7,84.3z"/>
</g>
</svg>
