<svg xmlns="http://www.w3.org/2000/svg" viewBox="0 0 128 128">
<g fill="currentColor">
	<path d="M117,53.2L104.9,2.3c-0.3-1.4-1.6-2.3-3-2.3H26.2c-1.4,0-2.7,1-3,2.3L11.1,53.2c-0.4,1.6,0.6,3.3,2.3,3.7
		c0.2,0.1,0.5,0.1,0.7,0.1h2.8V114c0,7.7,6.3,14,14.1,14h66.2c7.8,0,14.1-6.3,14.1-14V56.9h2.7c1.7,0,3.1-1.4,3.1-3
		C117,53.6,117,53.4,117,53.2L117,53.2z M105.1,114c0,4.4-3.6,7.9-8,7.9H30.9c-4.4,0-8-3.5-8-7.9V56.9h82.1V114z M28.6,6.1h70.9
		l10.6,44.7H17.9L28.6,6.1z"/>
	<path d="M90.9,10H37.2c-1.7,0-3.1,1.4-3.1,3v0v30.1c0,1.7,1.3,3.1,3,3.1c0,0,0,0,0.1,0h53.7c1.7,0,3.1-1.4,3.1-3c0,0,0,0,0,0V13.1
		C94,11.4,92.6,10,90.9,10z M87.8,40.2H40.2v-24h47.6V40.2z"/>
	<path d="M45.6,111.3h11l-3.4,3.4c-1.1,1-1.2,2.8-0.1,3.8c0.5,0.6,1.3,0.9,2.1,0.9c0.7,0,1.4-0.3,2-0.8l8.2-8.2
		c0.1-0.1,0.2-0.3,0.4-0.4c0,0,0-0.1,0.1-0.1c0.1-0.1,0.1-0.2,0.2-0.4c0-0.1,0-0.1,0-0.2c0-0.1,0.1-0.2,0.1-0.3c0-0.1,0-0.2,0-0.3
		c0-0.1,0-0.2,0-0.3c0-0.1,0-0.2,0-0.3s0-0.2,0-0.3c0-0.1-0.1-0.2-0.1-0.3c0-0.1,0-0.1,0-0.2c0-0.1-0.1-0.2-0.2-0.3
		c0,0,0-0.1-0.1-0.1c-0.1-0.2-0.2-0.3-0.4-0.4l-8.2-8.2c-1.1-1.1-2.8-1.1-3.9,0c-1.1,1.1-1.1,2.8,0,3.9l3.4,3.4h-11
		c-2.4,0-4.3-1.9-4.3-4.3c0-0.7,0.2-1.4,0.5-2l5.5-9.5c0.8-1.3,0.3-3-1-3.8c-1.3-0.8-3-0.3-3.8,1l-5.5,9.5
		c-2.7,4.7-1.1,10.7,3.6,13.4C42.2,110.9,43.9,111.4,45.6,111.3L45.6,111.3z"/>
	<path d="M75.7,82.3l-3,11.1c-0.4,1.4,0.4,3,1.9,3.4c0,0,0.1,0,0.1,0c0.2,0.1,0.5,0.1,0.7,0.1c1.3,0,2.4-0.8,2.7-2.1l1.3-4.7
		l5.5,9.4c1.2,2,0.5,4.7-1.6,5.8c-0.6,0.4-1.4,0.6-2.1,0.6H70.5c-1.5,0-2.8,1.2-2.8,2.8s1.2,2.8,2.8,2.8h10.6c5.4,0,9.8-4.4,9.8-9.8
		c0-1.7-0.5-3.4-1.3-4.8l-5.4-9.3l4.6,1.2c1.5,0.4,3-0.5,3.4-2c0.4-1.5-0.5-3-2-3.4l-11.1-3C77.7,79.9,76.1,80.8,75.7,82.3
		C75.7,82.2,75.7,82.3,75.7,82.3z"/>
	<path d="M45.5,83.7c0,0.1,0.1,0.2,0.1,0.3l0.1,0.2l0.1,0.2c0.1,0.2,0.2,0.3,0.3,0.4l0.2,0.2c0.1,0.1,0.3,0.2,0.5,0.3l0,0
		c0.4,0.2,0.9,0.4,1.4,0.4c0.2,0,0.5,0,0.7-0.1l0,0l11.2-3c1.5-0.4,2.4-1.9,2-3.3c-0.4-1.5-1.9-2.4-3.4-2L54,78.6l5.6-9.7
		c1.2-2,3.8-2.7,5.9-1.6c0.7,0.4,1.2,0.9,1.6,1.6l5.8,9.9c0.8,1.3,2.4,1.8,3.8,1c1.3-0.8,1.8-2.4,1-3.8l0,0l-5.8-9.9
		c-1.8-3.1-5-4.9-8.6-4.9l0,0c-3.5,0-6.8,1.8-8.5,4.8l-5.7,9.7l-1.2-4.6c-0.4-1.5-1.9-2.4-3.4-2c-1.5,0.4-2.4,1.9-2,3.4L45.5,83.7z"
		/>
</g>
</svg>
