<svg xmlns="http://www.w3.org/2000/svg" viewBox="0 0 128 128">
<g fill="currentColor">
	<path d="M65,28.6c0,0.1,0.1,0.1,0.1,0.2l6.6,11.3L65,43.9c-1.5,0.9-2,2.7-1.1,4.2c0.4,0.7,1.2,1.3,2,1.4l30.9,6.7
		c0.2,0.1,0.4,0.1,0.7,0.1c1.3,0,2.5-0.9,2.9-2.1l9.6-29.7c0.5-1.6-0.4-3.3-2-3.8c-0.8-0.3-1.7-0.2-2.5,0.3l-6.4,3.7L87.7,8.2
		c-0.2-0.3-0.4-0.5-0.7-0.7C75.9-0.9,62.8-2.2,48.1,3.4c-2.7,1-5.2,2.3-7.5,3.9c0,0-0.1,0.1-0.1,0.1c-0.1,0.1-0.2,0.1-0.3,0.2
		c-2.3,2.3-11.7,17-13.5,19.9c-0.9,1.4-0.5,3.3,1,4.2c0,0,0.1,0,0.1,0.1l22,12.6c0.5,0.3,1,0.4,1.6,0.4c1.1,0,2.1-0.6,2.7-1.5
		L64,26.9C64.4,27.5,64.7,28,65,28.6z M82.9,12l12.7,18.3c0.9,1.4,2.8,1.8,4.2,0.9l1.9-1.1l-6.3,19.6l-20.3-4.4l2.5-1.4
		c0.7-0.4,1.2-1.1,1.4-1.9c0.2-0.8,0.1-1.6-0.3-2.3l-8.1-13.9c-1.2-2.3-2.7-4.5-4.4-6.4c-1.8-2.2-3.8-4.2-6.1-5.9
		c-2.6-2-5.5-3.6-8.6-4.8C57,6.6,70,2.7,82.9,12z M50.2,37.5L33.7,28c4-6.2,8.1-12.5,10.1-15.1c4.2,0.7,8.3,2.3,11.7,4.8
		c1.6,1.2,3.1,2.5,4.5,3.9L50.2,37.5z"/>
	<path d="M48.4,86.6l-19.5-0.4c0.6-1.1,1-1.7,1-1.7l0.1-0.2L36.6,73l6.7,3.8c1.5,0.9,3.4,0.4,4.2-1.1c0.4-0.8,0.5-1.7,0.3-2.5
		l-9.6-29.7c-0.5-1.5-2-2.3-3.5-2.1l-31,6.7c-1.7,0.4-2.7,2-2.4,3.6c0.2,0.8,0.7,1.6,1.5,2l6.4,3.7L0.6,75.3
		c-0.1,0.3-0.2,0.6-0.3,0.9c-1.7,13.7,3.6,25.6,15.9,35.3c2.2,1.8,4.6,3.3,7.2,4.5l0.3,0.1l0.2,0.1H24l0,0
		c3.5,0.8,20.6,1.5,24.1,1.6h0.1c0.8,0,1.6-0.3,2.2-0.9c0.6-0.6,0.9-1.4,0.9-2.2l0.1-25C51.4,88,50.1,86.6,48.4,86.6z M6.4,77.5
		l9.7-20c0.7-1.4,0.2-3.2-1.3-4l-2-1.1L33.2,48l6.3,19.5l-2.5-1.4c-1.5-0.8-3.4-0.3-4.2,1.1l-8.1,13.8c-1.4,2.2-2.5,4.5-3.4,6.9
		c-1.1,2.6-1.8,5.4-2.2,8.2c-0.5,3.2-0.5,6.4,0,9.6C14.6,102.3,4.6,93.2,6.4,77.5z M45.1,111.5c-7.5-0.3-15-0.7-18.3-1.1
		c-1.5-3.9-2.1-8.1-1.6-12.2c0.2-2,0.6-4,1.2-6l18.8,0.4L45.1,111.5z"/>
	<path d="M127.9,76.4c0,0,0-0.1,0-0.1c0-0.1,0-0.2,0-0.4c-0.9-3.1-9.1-18.4-10.7-21.5c-0.8-1.5-2.7-2.1-4.2-1.3c0,0-0.1,0-0.1,0
		L90.7,65.7c-1.5,0.8-2,2.6-1.2,4.1l9.3,16.8c-1.2,0-2,0-2,0H83.4v-7.7c0-1.3-0.8-2.4-2-2.8c-1.2-0.5-2.6-0.1-3.4,0.8L56.7,99.9
		c-1.1,1.2-1.1,2.9,0,4.1L78,127c0.6,0.6,1.4,1,2.3,1c1.7,0,3.1-1.4,3.1-3.1v-7.2l20.1-1.5c0.3,0,0.7-0.1,1-0.2
		c12.9-5.4,20.6-15.9,23-31.2C128,82,128.1,79.2,127.9,76.4z M96.4,69.4l16.7-9.4c3.5,6.5,7,13.2,8.2,16.1
		c-2.7,3.3-6.2,5.9-10.1,7.6c-1.8,0.8-3.8,1.4-5.7,1.8L96.4,69.4z M102.5,110.1l-22.4,1.7c-1.6,0.1-2.9,1.5-2.9,3.1v2.2l-14-15.1
		l14-15.1v2.8c0,1.7,1.4,3.1,3.1,3.1c0,0,0,0,0,0h16.2c2.6,0.1,5.3-0.1,7.9-0.5c6.1-0.9,11.8-3.4,16.7-7.1
		C120.2,90.7,117.2,103.8,102.5,110.1z"/>
</g>
</svg>
