<svg xmlns="http://www.w3.org/2000/svg" viewBox="0 0 128 128">
<path d="M127.7,58.5c-0.7-8.5-3.1-16.7-7-24.2C110.5,14.8,91.1,2,69.2,0.2C63.1-0.3,57,0.1,51,1.3c-8,1.6-15.5,4.8-22.3,9.3
	C23,14.4,17.9,19,13.7,24.5C7.3,32.5,3,42,1.2,52.1c-0.5,2.9-0.7,5.8-1.1,8.7C0.1,60.9,0,61,0,61.1v5.9c0.1,0.8,0.2,1.7,0.3,2.5
	c1,12.2,5.5,23.8,13,33.5c12.8,16.8,33.2,26.1,54.3,24.8c9.7-0.5,19.1-3.2,27.5-8c10-5.5,18.3-13.7,24.1-23.5
	c3.6-6.1,6.2-12.9,7.5-19.9c0.6-3,0.8-6,1.2-9.1c0-0.2,0.1-0.5,0.1-0.7v-5.8C127.8,60.1,127.7,59.3,127.7,58.5z M80.3,24
	c-5.5,2.8-8.6,7.4-8.6,13.6c-0.1,12.2,0,24.4,0,36.7c0,6.8,0,13.5,0,20.3v0.8c1,0,2,0.4,2.7,1.2c0.7,0.7,1.1,1.6,1.1,2.6
	c0,6,0,12.1,0,18.1c-3.8,0.8-7.7,1.2-11.6,1.2c-1.2,0-2.5-0.1-3.7-0.2V72.4c1.1-0.2,2.1-0.5,3.2-0.9c2.7-1.2,4.5-3.9,4.4-6.9
	c0-8.9,0-17.8,0-26.7c0-4.5,0-9,0-13.5c0.1-0.8-0.4-1.6-1.2-1.9c-0.7-0.3-1.5-0.2-2,0.4c-0.4,0.5-0.6,1-0.6,1.6c0,6.5,0,12.9,0,19.4
	v14.7c0.1,1-0.5,1.8-1.4,2.1c-1,0.3-2.1-0.3-2.3-1.3c-0.1-0.2-0.1-0.5-0.1-0.7c0-2.6,0-5.2,0-7.8c0-8.8,0-17.6,0-26.4
	c0.1-1.1-0.7-2-1.8-2.1c-1.1-0.1-2,0.7-2.1,1.8c0,0.1,0,0.2,0,0.3c0,7.3,0,14.6,0,22c0,4.1,0,8.2,0,12.3c0.1,1.1-0.7,2-1.8,2.1
	c-1.1,0.1-2-0.7-2.1-1.8c0-0.1,0-0.2,0-0.3V24.5c0.1-1.1-0.7-2-1.8-2.1c0,0-0.1,0-0.1,0c-1.1,0-1.9,0.8-2,1.9c0,0.1,0,0.2,0,0.2
	c0,11.3,0,22.6,0,33.9c0,0.6-0.2,1.2-0.5,1.7c-0.4,0.6-1.3,0.8-2,0.5c-0.7-0.2-1.3-0.9-1.3-1.7c0-0.2,0-0.4,0-0.6V24.6
	c0.1-1-0.6-2-1.6-2.2c-0.1,0-0.1,0-0.2,0c-1-0.1-2,0.6-2.1,1.7c0,0.1,0,0.2,0,0.3c0,1.8,0,3.6,0,5.5c0,11.5,0,23,0,34.5
	c-0.1,3.7,2.4,7,6.1,7.7c0.5,0.1,1,0.2,1.6,0.2v43.9c-28.9-8.5-45.4-38.8-36.9-67.6S50.4,3.2,79.2,11.7s45.4,38.8,36.9,67.6
	c-4.4,15-15,27.4-29.2,34V22.4C84.7,22.4,82.4,22.9,80.3,24z" fill="currentColor" />
</svg>
