<svg xmlns="http://www.w3.org/2000/svg" viewBox="0 0 128 128">
<g fill="currentColor">
	<path d="M127.8,58.7c-0.9-12-5.3-23.5-12.6-33.1c-10.1-13.6-25.2-22.6-42-25C56.3-1.8,39.1,2.6,25.4,13
		C14.5,21.2,6.5,32.7,2.7,45.8c-1.3,4.3-2.1,8.8-2.4,13.3c-0.1,1.2-0.2,2.2-0.2,3.4v3c0,0.3,0.1,0.7,0.1,1c0.1,4.6,0.8,9.2,2,13.6
		C5.9,95,15,108,27.7,116.7c11.7,8.2,25.9,12.1,40.1,11.2c4.9-0.2,9.8-1.1,14.5-2.6c19.7-6.3,33.5-19,41.3-38.2
		c2.3-5.7,3.7-11.8,4.1-17.9c0.1-0.9,0.2-1.8,0.2-2.8v-4.9C127.9,60.6,127.8,59.7,127.8,58.7z M63.9,118.8
		C33.7,118.7,9.2,94.1,9.3,63.9S33.9,9.2,64.1,9.2c30.2,0.1,54.7,24.6,54.7,54.8C118.8,94.3,94.2,118.8,63.9,118.8
		C64,118.8,64,118.8,63.9,118.8z"/>
	<path d="M80.6,61.2h-1.7v-7.9c2.6-0.4,2.9-0.6,2.5-2.3c-0.2-0.6-0.6-1.2-1.2-1.5c-4.8-3.8-9.7-7.6-14.5-11.4c-0.4-0.4-1-0.9-1-1.4
		c-0.1-1.7,0-3.4,0-5.5c1.8,0.3,3.3,0.5,4.9,0.7c1.4,0.1,2.7,0.2,4.1,0.3c0.9,0,1.2-0.6,1.2-1.4c-0.1-1.9-0.2-3.7-0.3-5.6
		c-0.9,0.2-1.8,0.4-2.7,0.4c-2.3-0.3-4.5-0.7-6.8-1.1c-0.1,0-0.2-0.1-0.3-0.2l-1-0.7c-0.2,0.5-0.4,1-0.5,1.5c0,3.6,0,7.2-0.1,10.8
		c0,0.9-0.4,1.7-1.1,2.2c-2,1.7-4.1,3.2-6.1,4.8c-2.9,2.2-5.9,4.4-8.6,6.8c-0.6,0.5-0.7,1.8-0.8,2.8c0.6,0.3,1.2,0.5,1.8,0.6
		c0.2,0.1,0.4,0.1,0.7,0.1v7.9H26c-2,0-2.3,0.4-2.3,2.3c0,6.3,0,12.5,0,18.8c0,0.6,0,1.2-0.1,1.7c-2.5,0.2-2.6,0.3-2.6,2.6v1.3
		c0,2.8,0,2.8,2.7,2.8h79.1c4.5,0,4.2,0.4,4.2-4.2c0-2.3-0.1-2.3-2.7-2.6V63.4c0-2-0.3-2.3-2.3-2.3L80.6,61.2z M34.6,80.7
		c0,0.5-0.4,0.9-0.9,0.9h0h-4.1c-0.5,0-0.9-0.4-0.9-0.9l0,0v-4.1c0-0.5,0.4-0.9,0.9-0.9h0h4.1c0.5,0,0.9,0.4,0.9,0.9l0,0V80.7z
		 M34.6,71c0,0.5-0.4,0.9-0.9,1c0,0,0,0,0,0h-4.1c-0.5,0-0.9-0.4-0.9-0.9c0,0,0,0,0,0v-4c0-0.5,0.4-0.9,0.9-1c0,0,0,0,0,0h4.1
		c0.5,0,0.9,0.4,0.9,0.9c0,0,0,0,0,0V71z M44.2,80.7c0,0.5-0.4,0.9-0.9,0.9c0,0,0,0,0,0h-4.1c-0.5,0-0.9-0.4-0.9-0.9l0,0v-4.1
		c0-0.5,0.4-0.9,0.9-0.9c0,0,0,0,0,0h4.1c0.5,0,0.9,0.4,0.9,0.9l0,0V80.7z M44.2,71c0,0.5-0.4,0.9-0.9,1c0,0,0,0,0,0h-4.1
		c-0.5,0-0.9-0.4-0.9-0.9c0,0,0,0,0,0v-4c0-0.5,0.4-0.9,0.9-1c0,0,0,0,0,0h4.1c0.5,0,0.9,0.4,0.9,0.9c0,0,0,0,0,0V71z M53.8,80.7
		c0,0.5-0.4,0.9-0.9,0.9c0,0,0,0,0,0h-4.1c-0.5,0-0.9-0.4-1-0.9v-2c0-0.8,0-1.3,0-1.7v-0.4c0-0.5,0.4-0.9,1-0.9h4
		c0.5,0,0.9,0.4,1,0.9c0,0,0,0,0,0L53.8,80.7z M53.8,71c0,0.4-0.2,0.7-0.6,0.9l0,0h-0.1h-0.2h-0.7c-1,0.1-2,0.1-3,0h-0.4
		c-0.4,0-0.8-0.3-0.9-0.7c-0.2-0.6-0.2-1.3,0-1.9V67c0-0.5,0.4-1,1-1c0,0,0,0,0,0h4c0.5,0,1,0.4,1,1c0,0,0,0,0,0L53.8,71z
		 M63.9,53.1c3,0,5.4,2.4,5.4,5.3c0,3-2.4,5.4-5.3,5.4c-2.9,0-5.3-2.3-5.4-5.3C58.6,55.6,61,53.2,63.9,53.1z M67.9,88.1
		c-2.6-0.1-5.3,0-8,0c-1,0-1.4-0.4-1.4-1.4c0-1.6,0-3.2,0-4.8l0,0c0-1.4,0-2.9,0-4.3c0.1-3.4,2.3-5.7,5.5-5.6c3.1,0,5.3,2.3,5.3,5.8
		c0,2.9,0,5.9,0,8.8C69.4,87.6,69.1,88.1,67.9,88.1z M80.2,80.7c0,0.5-0.4,0.9-0.9,0.9h0h-4.1c-0.5,0-0.9-0.4-0.9-0.9l0,0v-4.1
		c0-0.5,0.4-0.9,0.9-0.9c0,0,0,0,0,0h4.1c0.5,0,0.9,0.4,0.9,0.9v0V80.7z M80.2,71c0,0.2-0.1,0.4-0.2,0.5c0,0.1-0.1,0.2-0.2,0.2
		c-0.2,0.1-0.4,0.2-0.6,0.2h-4.1c-0.5,0-0.9-0.4-0.9-0.9c0,0,0,0,0,0V67c0-0.5,0.4-0.9,0.9-1c0,0,0,0,0,0h4.1c0.5,0,0.9,0.4,0.9,0.9
		c0,0,0,0,0,0V71z M89.8,80.7c0,0.5-0.4,0.9-0.9,0.9h0h-4.1c-0.5,0-0.9-0.4-0.9-0.9v0v-4.1c0-0.5,0.4-0.9,0.9-0.9h0h4.1
		c0.5,0,0.9,0.4,0.9,0.9v0V80.7z M89.8,71c0,0.5-0.4,0.9-0.9,1c0,0,0,0,0,0h-4.1c-0.5,0-0.9-0.4-0.9-0.9c0,0,0,0,0,0V67
		c0-0.5,0.4-0.9,0.9-1c0,0,0,0,0,0h4.1c0.5,0,0.9,0.4,0.9,0.9c0,0,0,0,0,0V71z M99.3,80.7c0,0.5-0.4,0.9-1,0.9h-4.1
		c-0.5,0-0.9-0.4-1-0.9c0,0,0,0,0,0v-4.1c0-0.5,0.4-0.9,0.9-0.9c0,0,0,0,0,0h4.1c0.5,0,0.9,0.4,1,0.9L99.3,80.7z M99.3,71
		c0,0.5-0.4,1-1,1h-4.1c-0.5,0-1-0.4-1-1V67c0-0.5,0.4-1,1-1h4.1c0.5,0,1,0.4,1,1L99.3,71z"/>
</g>
</svg>
