<svg xmlns="http://www.w3.org/2000/svg" viewBox="0 0 128 128">
<g fill="currentColor">
	<path d="M83.6,49.4c-3-3.1-6.1-6.1-9.2-9.2l-6.1-6.2c-0.4-0.6-1.2-0.7-1.8-0.3c-0.1,0.1-0.2,0.2-0.3,0.3l-0.4,0.4c-1,1-1,1.5,0,2.5
		L78,49.3c0.2,0.2,0.4,0.4,0.5,0.6h-29l0.6-0.6l12.3-12.3c0.6-0.4,0.8-1.3,0.3-1.9c-0.1-0.1-0.2-0.2-0.3-0.3L62,34.2
		c-0.9-0.9-1.5-0.9-2.3,0c-5.1,5-10.1,10.1-15.1,15.1c-0.3,0.4-0.8,0.6-1.3,0.5H21c-1.1,0-1.5,0.4-1.5,1.5c0,2,0,4,0,6
		c-0.1,0.7,0.4,1.3,1.1,1.4c0.1,0,0.1,0,0.2,0c0.4,0,0.7,0,1.1,0c0.1,0.3,0.1,0.6,0.2,0.8c0.6,3.5,1.2,7,1.8,10.6
		c1.1,6.2,2.1,12.4,3.2,18.5c0.5,3.2,3.2,5.5,6.4,5.6h60.9c3.2-0.1,5.9-2.4,6.5-5.6c0.6-3.8,1.3-7.7,2-11.5l2.5-14.6
		c0.2-1.3,0.5-2.6,0.7-3.9h0.7c1.4,0,1.8-0.4,1.8-1.7v-5.5c0-1.4-0.4-1.7-1.7-1.7H84.7C84.3,49.9,83.9,49.7,83.6,49.4z M45,73.8
		c0,3.3,0,6.6,0,9.9c0,1.6-0.7,2.3-2.3,2.3s-2.3-0.7-2.3-2.3c0-6.6,0-13.2,0-19.8c-0.1-0.9,0.4-1.7,1.2-2.1c0.9-0.4,1.9-0.4,2.7,0.2
		c0.6,0.4,0.9,1.1,0.8,1.8C45,67.2,45,70.5,45,73.8z M53.5,83.8c0,1.5-0.7,2.2-2.3,2.2s-2.3-0.7-2.3-2.2V63.9c0-1.5,0.8-2.2,2.3-2.2
		c1.1-0.2,2.1,0.6,2.3,1.7c0,0.2,0,0.4,0,0.6c0,3.3,0,6.6,0,10S53.5,80.5,53.5,83.8z M61.1,85.7c-0.9,0.5-1.9,0.5-2.8,0
		c-0.6-0.4-0.9-1.1-0.9-1.8c0-3.4,0-6.7,0-10c0-3.3,0-6.6,0-9.9c0-1.5,0.7-2.2,2.3-2.2c1.1-0.2,2.2,0.6,2.3,1.7c0,0.2,0,0.4,0,0.6
		c0,6.6,0,13.2,0,19.7C62.2,84.6,61.8,85.4,61.1,85.7z M70.6,83.7c0,1.6-0.7,2.3-2.3,2.3s-2.3-0.7-2.3-2.3V64
		c-0.1-0.8,0.3-1.7,1.1-2c0.9-0.4,1.9-0.4,2.7,0.1c0.6,0.4,0.9,1.1,0.8,1.8c0,3.3,0,6.7,0,10V83.7z M79.1,83.8
		c0,1.5-0.8,2.2-2.3,2.2c-1.6,0-2.3-0.7-2.3-2.2v-20c0-1.5,0.8-2.2,2.3-2.2c1.6,0,2.3,0.7,2.3,2.2c0,3.3,0,6.6,0,10
		S79.1,80.5,79.1,83.8L79.1,83.8z M87.6,64c0,6.6,0,13.1,0,19.7c0,2.5-2.2,2.7-3.6,2.1c-0.7-0.3-1.1-1.1-1-1.9c0-3.3,0-6.6,0-10V64
		c0-1.6,0.7-2.3,2.3-2.3c1.1-0.1,2.1,0.6,2.3,1.7C87.6,63.6,87.6,63.8,87.6,64L87.6,64z"/>
	<path d="M127.8,58.7c-0.9-12-5.3-23.5-12.6-33.1c-10.1-13.6-25.2-22.6-42-25C56.3-1.8,39.1,2.6,25.4,13
		C14.5,21.2,6.5,32.7,2.7,45.8c-1.3,4.3-2.1,8.8-2.4,13.3c-0.1,1.2-0.2,2.2-0.2,3.4v3c0,0.3,0.1,0.7,0.1,1c0.1,4.6,0.8,9.2,2,13.6
		C5.9,95,15,108,27.7,116.7c11.7,8.2,25.9,12.1,40.1,11.2c4.9-0.2,9.8-1.1,14.5-2.6c19.7-6.3,33.5-19,41.3-38.2
		c2.3-5.7,3.7-11.8,4.1-17.9c0.1-0.9,0.2-1.8,0.2-2.8v-4.9C127.9,60.6,127.8,59.7,127.8,58.7z M63.9,118.8
		C33.7,118.7,9.2,94.1,9.3,63.9S33.9,9.2,64.1,9.2c30.2,0.1,54.7,24.6,54.7,54.8C118.8,94.3,94.2,118.8,63.9,118.8
		C64,118.8,64,118.8,63.9,118.8z"/>
</g>
</svg>
