<svg xmlns="http://www.w3.org/2000/svg" viewBox="0 0 128 128">
<g fill="currentColor">
	<path d="M127.7,58.7c-0.9-12-5.3-23.5-12.5-33.1c-7-9.5-16.6-16.8-27.5-21.1C83,2.7,78.2,1.4,73.2,0.7C70.2,0.2,67.1,0,64,0
		c-1,0-2.1,0-3.1,0.1C48,0.7,35.6,5.2,25.4,13C14.5,21.2,6.5,32.7,2.7,45.8c-1.3,4.3-2.1,8.8-2.4,13.3c-0.1,1.2-0.2,2.2-0.2,3.4v3
		c0,0.3,0.1,0.7,0.1,1c0.1,4.6,0.8,9.2,2,13.6c3.8,14.9,12.9,27.9,25.6,36.6c10.9,7.7,24.1,11.6,37.4,11.3c0.9,0,1.8,0,2.8-0.1
		c4.9-0.2,9.8-1.1,14.5-2.6c19.7-6.3,33.4-19,41.3-38.2c2.3-5.7,3.7-11.8,4.1-17.9c0-0.9,0.2-1.8,0.2-2.8v-4.9
		C127.9,60.6,127.8,59.7,127.7,58.7z M118.7,64c0,30.3-24.5,54.8-54.7,54.8S9.3,94.3,9.3,64S33.8,9.2,64,9.2c0.1,0,0.1,0,0.2,0
		C94.3,9.4,118.7,33.9,118.7,64L118.7,64z"/>
	<path d="M64.6,39.9c-0.3-0.1-0.7-0.1-1,0c-2.3,0.7-4.5,1.4-6.7,2.1L16.5,54.8l-2.1,0.7v0.1l10.1,3.2l-0.2,0.2
		c-2.5,1.3-4.2,3.9-4.3,6.7c-0.1,0.2-0.2,0.4-0.4,0.5c-0.9,0.6-1.2,1.9-0.5,2.8c0.1,0.1,0.2,0.2,0.2,0.3c0.2,0.3,0.3,0.6,0.2,0.9
		c0,0.7-0.1,1.4-0.2,2.1c-0.1,1.4-0.3,2.9-0.4,4.3c-0.2,1.7-0.4,3.4-0.5,5.1c0,1.1,0.8,2.1,2,2.1c0.1,0,0.2,0,0.3,0
		c1.2,0,2.1-0.9,2.2-2c0,0,0-0.1,0-0.1c-0.1-1.4-0.2-2.7-0.4-4.1C22.3,75,22,72.5,21.8,70c0-0.2,0.1-0.5,0.3-0.7
		c0.8-0.7,0.9-1.9,0.2-2.7c-0.1-0.1-0.2-0.2-0.3-0.3c-0.3-0.2-0.5-0.6-0.4-0.9c0.3-2.4,1.9-4.5,4.2-5.3c0.6-0.3,1.4-0.4,2-0.1
		c11.9,3.8,23.9,7.7,35.9,11.4c0.3,0.1,0.7,0.1,1,0c2.7-0.8,5.5-1.7,8.2-2.6l37-11.7l4.1-1.4l-0.6-0.2l-12.7-4L64.6,39.9z"/>
	<path d="M90.1,70.4c-0.3-1.3-0.5-2.5-0.8-3.8l-0.7,0.2l-24.1,7.8c-0.3,0.1-0.6,0.1-0.9,0c-6.3-2-12.5-4-18.7-6l-6.2-2
		c-1,4.8-1.9,9.5-2.9,14.1c-0.2,0.6,0.1,1.3,0.6,1.7c1.8,1.7,4,3,6.4,3.8c5.7,2,11.8,3.1,17.8,3.2c5.2,0.3,10.4,0,15.6-0.9
		c3.5-0.5,6.8-1.5,10.1-2.8c2.2-0.8,4.1-2.1,5.8-3.7c0.3-0.3,0.4-0.8,0.3-1.2C91.6,77.4,90.8,73.9,90.1,70.4z"/>
</g>
</svg>
