<svg xmlns="http://www.w3.org/2000/svg" viewBox="0 0 128 128">
<g fill="currentColor">
	<path d="M109.1,118.2c-1.3-0.9-1.4-1.6-1.4-3.7v-0.7c0-1.7,0-3.4,0-5.1v-4.2H21.2l-0.5,1.3c-0.7,2.1-0.9,4.3-0.7,6.5
		c0.1,3.7,0.1,5.7-2.9,7L16,120v4.7l1.3,0.5c0.7,0.3,1.4,0.6,2.1,0.9c1.7,1,3.7,1.6,5.7,1.8c14.1,0.1,28.4,0.1,42.5,0.1h24.7h10.8
		c1.6,0.1,3.1-0.1,4.6-0.7c2.2-1,3.7-2.7,3.8-4.6C111.7,120.8,110.7,119.1,109.1,118.2z M106,123.4c-0.9,0.3-1.9,0.4-2.8,0.3h-0.4
		H92.3c-22,0-44.8,0-67.2-0.1c-1.4-0.2-2.7-0.7-3.9-1.4l-0.4-0.2c3.7-2.7,3.5-6.8,3.4-9.9c-0.1-1.2-0.1-2.3,0-3.5h79.3
		c0,1.7,0,3.4,0,5.2v0.6c0,2.1,0,5,3.2,7.2c0.5,0.3,0.6,0.6,0.6,0.6C107.4,122.3,107,123,106,123.4z"/>
	<path d="M20,15.6c-0.1,2,0,4,0.5,5.9l0.4,1.5h86.8V21c0-0.9,0-1.8,0-2.7c0-2.1,0-4,0.1-5.9c0.1-0.9,0.4-1.8,0.8-2.6
		c0.4-1,1-1.9,1.6-3l0.8-1.3l1.1-2l-2.2-0.9c-0.5-0.2-1-0.5-1.6-0.8c-1.4-0.9-3.1-1.5-4.8-1.6C74.9,0,49.1,0,24.5,0.1
		c-1.9,0.2-3.8,0.8-5.4,1.9c-0.6,0.4-1.2,0.7-1.9,1L16,3.5V7l1.1,0.6C20,9.3,20.1,11.6,20,15.6z M24.5,4.3c24.6-0.2,50.4-0.2,78.9,0
		c1,0.1,1.9,0.5,2.7,1c-0.5,0.8-1,1.7-1.4,2.7c-0.6,1.3-1,2.7-1.2,4.1c-0.1,2-0.1,4-0.1,6.2v0.6H24.2c-0.1-1.1-0.1-2.1,0-3.2
		c0.1-3.2,0.1-7.2-2.9-10.1C22.3,4.9,23.4,4.5,24.5,4.3z"/>
	<path d="M55.3,82.1c5.2,3.6,12.2,3.6,17.4-0.2c5.5-4.1,7.4-10.8,4.8-16.7c-2.2-5-4.8-9.9-7.4-14.7c-1.1-2-2.2-4.1-3.2-6.2l-0.5-1
		l-4.8-0.4L61,44.2c-1.1,2.1-2.2,4.3-3.3,6.4c-2.6,5-5.3,10.1-7.5,15.4C47.7,71.6,49.9,78.2,55.3,82.1z M54,67.6
		c2.2-5.1,4.8-10.2,7.4-15.1c0.9-1.6,1.7-3.2,2.5-4.9c0.8,1.6,1.7,3.3,2.6,4.9c2.5,4.7,5.1,9.6,7.2,14.5c1.8,4.1,0.4,8.8-3.5,11.7
		c-3.7,2.6-8.7,2.7-12.5,0.1C53.9,76,52.3,71.4,54,67.6z"/>
	<path d="M20.3,100.3h87.1V27.6H20.3V100.3z M103.3,31.8v64.4H24.5l0-64.4H103.3z"/>
</g>
</svg>
