<svg xmlns="http://www.w3.org/2000/svg" viewBox="0 0 128 128">
<g fill="currentColor">
	<path d="M102.1,42.6C92.6,29.7,82.5,17,73.8,6.3C70.3,2,67.3,0,64.1,0c-3.3,0-6.4,2.1-10.1,6.8l-0.2,0.3C49.4,12.5,45.1,18,41,23.6
		c-2.1,2.8-4.3,5.7-6.4,8.5c-5.4,6.9-10.9,14.1-15,22c-7.9,15.5-7.3,34,1.6,48.9c8.9,15.3,25,24.7,42.5,25h0.8
		c12.9,0,25.2-5.2,34.3-14.4c9.8-9.8,15.3-23,15.3-36.9C114,64.4,110.2,53.6,102.1,42.6z M95.5,110.3c-8.2,8.3-19.4,13-31.1,13.1
		h-0.7c-15.9-0.3-30.6-8.9-38.6-22.8c-8.1-13.5-8.7-30.3-1.5-44.4c3.8-7.5,9.3-14.5,14.5-21.2c2.2-2.8,4.4-5.7,6.5-8.6
		C48.7,20.8,53,15.3,57.2,10l0.2-0.3c2.7-3.4,4.8-5.1,6.6-5.1c1.7,0,3.7,1.5,6.2,4.6C78.9,20,88.9,32.6,98.5,45.4
		c7.6,10.3,11,19.9,11,31.3l0,0C109.5,89.3,104.4,101.5,95.5,110.3z"/>
	<path d="M59.1,83.6c-2.6-0.1-3.5-1-3.9-3.7c-0.3-4.2-4-7.3-8.1-7c-0.2,0-0.4,0-0.6,0.1c-4.3,0.5-6.9,3.6-7.1,8.4
		c-0.2,5.1,1.7,10,5.1,13.7c3.4,3.7,8.2,5.8,13.2,5.8h0.1c5.8,0,9.4-3,9.5-8.1C67.5,87.3,64.3,83.8,59.1,83.6z M57.8,96.3h-0.1
		c-7.7-0.1-13.9-6.6-13.8-14.4c0-0.1,0-0.2,0-0.2c0.1-3.2,1.7-3.8,3.1-4h0.6c1.8,0,2.9,1,3.1,3c0.7,4.9,3.3,7.4,8.2,7.6
		c2.7,0.1,4,1.5,3.8,4.4C62.7,93.7,62.6,96.3,57.8,96.3z"/>
</g>
</svg>
