<svg xmlns="http://www.w3.org/2000/svg" viewBox="0 0 128 128">
<g fill="currentColor">
	<path d="M101.2,40.4c-3.8-12.9-7.6-25.7-11.4-38.6c-0.3-1.2-1.4-2-2.6-1.8C71.8,0,56.4,0,41,0c-2,0-2.4,0.3-3,2.2
		C34.4,14.2,30.9,26,27.4,37.9c-1.3,3.9-1.7,8-1.1,12c0.9,5.9,3.2,11,7.9,14.8c5.7,4.5,12.1,7.9,19.1,10.1c2.9,0.9,5.8,1.6,8.7,2.4
		c0,0.1,0.1,0.3,0.1,0.4c0,12.3,0,24.6,0,36.8c-0.1,0.6-0.4,1.1-0.9,1.4c-4.3,2.7-8.6,5.4-13,8.1c-2,1.3-2.1,2.6-0.3,4.1h32.4
		c1.8-1.5,1.7-2.8-0.3-4.1c-4.2-2.6-8.4-5.3-12.6-7.9c-0.9-0.4-1.4-1.4-1.3-2.3c0-11.7,0-23.4,0-35.1v-1.5c0.4-0.1,0.7-0.2,1.1-0.3
		c9.1-1.8,17.6-5.4,25.1-10.8c4-2.8,7-6.8,8.4-11.5c0.6-1.9,0.9-3.9,1.4-5.9v-4.6C101.8,42.9,101.6,41.6,101.2,40.4z M35.5,24.5
		C35.5,24.5,35.5,24.5,35.5,24.5c2.1-6.8,4-13.6,6.1-20.4h44.7c2.4,8.1,4.8,16.3,7.3,24.7l-3.9-0.3c-8.1-0.5-16.2,0.5-23.9,3
		c-10.7,3.2-20.5,1.3-29.6-4.9C35.5,26.2,35.2,25.3,35.5,24.5z M72.3,123.9H55.7c2.8-1.7,5.3-3.3,7.8-4.8c0.4-0.1,0.8-0.1,1.1,0.1
		C67.1,120.7,69.5,122.2,72.3,123.9z M97.8,48.4c-0.7,5.8-2.9,10.7-7.8,14.2c-7.5,5.5-16.1,9.1-25.3,10.5c-2,0.3-4.3-0.4-6.3-0.9
		C51,70.3,44.1,67.1,38,62.6c-5.8-4.2-7.9-10.1-7.9-17c0-4.5,2-8.6,3-12.9c0.2-0.9,0.5-1.8,0.9-2.8c4.7,3.3,10.2,5.6,15.9,6.6
		c6.3,1,12.8,0.5,18.9-1.6c8.2-2.6,16.9-3.2,25.4-1.9c0.4,0.1,0.8,0.3,1,0.7C96.5,38.6,98.4,43.3,97.8,48.4z"/>
	<path d="M90.8,37.3c-0.1,0-0.2,0-0.3,0c-1.2,0.3-1.7,1.4-1.4,2.8c0.7,2.5,0.8,5.2,0.2,7.7c-0.6,3.3-2.3,6.2-4.8,8.4
		c-0.5,0.6-0.8,1.4-0.7,2.2c0.3,0.7,0.8,1.2,1.5,1.3c0.8,0,1.5-0.3,2.1-0.9c4.3-3.8,6.1-8.7,6.3-15.2c-0.2-1.1-0.4-2.9-0.8-4.8
		C92.9,38,91.9,37.2,90.8,37.3z"/>
</g>
</svg>
