<svg xmlns="http://www.w3.org/2000/svg" width="26" height="26" viewBox="0 0 26 26">
<g fill="currentColor">
<path d="M18.91,0H7.09A7.17,7.17,0,0,0,0,7.23V18.77A7.17,7.17,0,0,0,7.09,26H18.91A7.17,7.17,0,0,0,26,18.77V7.23A7.17,7.17,0,0,0,18.91,0Zm3.85,18.6a4.11,4.11,0,0,1-4.06,4.16H7.3A4.11,4.11,0,0,1,3.24,18.6V7.4A4.11,4.11,0,0,1,7.3,3.24H18.7A4.11,4.11,0,0,1,22.76,7.4Z"/>
<path d="M13,6.08a6.92,6.92,0,0,0,0,13.84A6.92,6.92,0,0,0,13,6.08ZM16.55,13a3.69,3.69,0,0,1-1,2.58A3.5,3.5,0,0,1,13,16.64h0A3.64,3.64,0,1,1,16.55,13Z"/>
<path d="M21,4.86a2,2,0,0,0-.62-.42,1.9,1.9,0,0,0-1.48,0,2,2,0,0,0-.62.42,1.8,1.8,0,0,0-.41.64,1.85,1.85,0,0,0-.15.74,1.92,1.92,0,0,0,.15.74,1.76,1.76,0,0,0,.41.63,2,2,0,0,0,.62.43,1.92,1.92,0,0,0,.74.15A1.88,1.88,0,0,0,20.36,8,2,2,0,0,0,21,7.61,1.93,1.93,0,0,0,21.4,7a2.11,2.11,0,0,0,.14-.74,2,2,0,0,0-.14-.74A2,2,0,0,0,21,4.86ZM20.47,6.6a.92.92,0,0,1-.2.31,1,1,0,0,1-.3.21.94.94,0,0,1-.7,0A.86.86,0,0,1,19,6.91a1,1,0,0,1-.21-.31,1,1,0,0,1-.07-.36,1.16,1.16,0,0,1,.07-.37A1,1,0,0,1,19,5.56a.84.84,0,0,1,.29-.2.87.87,0,0,1,.35-.07.84.84,0,0,1,.35.07,1,1,0,0,1,.3.2.92.92,0,0,1,.2.31.94.94,0,0,1,.07.37A.86.86,0,0,1,20.47,6.6Z"/>
</g>
</svg>